<?xml version="1.0" encoding="utf-8"?>
<!-- Generator: Avocode 2.4.5 - http://avocode.com -->
<svg height="27" width="15" xmlns:xlink="http://www.w3.org/1999/xlink" xmlns="http://www.w3.org/2000/svg" viewBox="0 0 15 27">
    <path fill="#ffffff" fill-rule="evenodd" d="M 14.57 14.6 C 14.57 14.6 2.6 26.57 2.6 26.57 C 2.01 27.16 1.05 27.16 0.47 26.57 C -0.12 25.98 -0.12 25.02 0.47 24.43 C 0.47 24.43 11.38 13.52 11.38 13.52 C 11.38 13.52 0.47 2.6 0.47 2.6 C -0.12 2.01 -0.12 1.05 0.47 0.47 C 1.05 -0.12 2.01 -0.12 2.6 0.47 C 2.6 0.47 14.57 12.43 14.57 12.43 C 14.87 12.73 15.01 13.12 15.01 13.52 C 15.01 13.91 14.87 14.3 14.57 14.6 Z" />
</svg>