<svg xmlns="http://www.w3.org/2000/svg" width="53.125" height="52" viewBox="0 0 53.125 52">
  <defs>
    <style>
      .cls-1 {
        fill-rule: evenodd;
      }
    </style>
  </defs>
  <path class="cls-1" d="M230.331,561.073l-1.789,1.029,7.873,7.965-7.013,7.1-7.873-7.966-1.016,1.809,8.889,9,9.819-9.933-8.89-9m-4.868-4.926h0l1.958,1.982h0l-1.959-1.982m-21.748-2.138h0l6.383,6.46h0l-6.384-6.459m9.818-9.934h0l6.384,6.46h0l-6.384-6.459m-10.778-8a6.88,6.88,0,0,0-4.909,2.057,7.087,7.087,0,0,0,0,9.934l2.673,2.7,0.333-1.143a2.01,2.01,0,0,1,.5-0.852l-2.1-2.129a5.066,5.066,0,0,1,0-7.1,4.92,4.92,0,0,1,7.013,0l2.1,2.129a1.97,1.97,0,0,1,.843-0.506l1.131-.336-2.675-2.707a6.881,6.881,0,0,0-4.908-2.056m-2.1,10.157a0.986,0.986,0,0,1-.7-0.294,4.054,4.054,0,0,1,0-5.677,3.94,3.94,0,0,1,5.61,0,1.012,1.012,0,0,1,0,1.419,0.984,0.984,0,0,1-1.4,0,1.969,1.969,0,0,0-2.8,0,2.026,2.026,0,0,0,0,2.839,1.014,1.014,0,0,1,0,1.419,0.99,0.99,0,0,1-.7.294M214.9,548.3l5.385,5.448a1.976,1.976,0,0,1,.85-0.508l1.126-.331-0.892-.9-1.785,1.032L214.9,548.3m-4.563-7.457-1.131.336a1.97,1.97,0,0,0-.843.506l1.4,1.42,2.168-.646-1.6-1.616m-0.571,2.262h0L214.9,548.3l-5.134-5.195m23.843-7.1L214.1,541.814l1.6,1.616,17.341-5.16,2.941,2.974L221.7,549.5l1.453,1.47,16.067-9.289-5.611-5.676M221.7,549.5l-1.784,1.031,1.453,1.471,1.784-1.032L221.7,549.5m-7.6-7.689-2.167.644,1.6,1.617,2.166-.645-1.6-1.616m-2.167.644-2.168.646L214.9,548.3l4.684,4.738,1.785-1.032-1.453-1.471h0l-6.384-6.46h0l-1.6-1.617m10.889,11.018-1.786,1.033,7.5,7.593,1.789-1.029-1.454-1.472-1.789,1.028-5.4-5.463,2.174-.639-1.038-1.051m-0.562-.568-1.126.331a1.976,1.976,0,0,0-.85.508l0.752,0.762,1.786-1.033-0.562-.568m12.47-1.574-8.7,2.555,1.6,1.619,6.522-1.916,0.417,0.422-5.366,3.086,1.455,1.472,7.154-4.116-3.086-3.122m-5.523,5.766-1.787,1.029,1.455,1.472,1.787-1.029-1.455-1.472m-3.173-3.211-2.174.638,1.6,1.62,2.173-.639-1.6-1.619m-2.174.638-2.174.639,5.4,5.463,1.789-1.028-1.455-1.472h0l-1.958-1.982h0l-1.6-1.62m-3.787,13.2-1.016,1.809,1.454,1.471,1.016-1.809-1.454-1.471m-6.05-6.122-1.02,1.806,1.039,1.051,0.631-2.2-0.65-.658m-0.612,5.057-2.524,8.8,3.085,3.123,4.068-7.238-1.455-1.473-3.051,5.429-0.415-.422,1.892-6.6-1.6-1.62m1.262-4.4h0l5.4,5.464h0l-5.4-5.464m-0.631,2.2-0.631,2.2,1.6,1.62,0.632-2.2,1.958,1.982-1.016,1.809,1.455,1.473,1.017-1.81-5.015-5.074m0.631-2.2-0.631,2.2,5.015,5.074,1.016-1.809-5.4-5.464m-2.1-2.129-1.02,1.806,0.892,0.9,0.326-1.14a2.008,2.008,0,0,1,.5-0.859l-0.7-.709M201.351,548.78a2.01,2.01,0,0,0-.5.852l-0.333,1.143,1.6,1.617,0.638-2.193-1.4-1.419m11.922,12.063a2.008,2.008,0,0,0-.5.859l-0.326,1.14,0.561,0.568,1.02-1.806-0.752-.761m-11.794-6.258-5.738,19.74,5.61,5.676,9.181-16.255-1.454-1.471-8.16,14.45-2.941-2.977,5.1-17.545-1.6-1.618m1.275-4.386h0l9.818,9.935h0l-9.818-9.934m7.344,10.27-1.02,1.806,1.454,1.471,1.02-1.807-1.454-1.47m-7.982-8.077-0.637,2.193,1.6,1.618,0.638-2.194-1.6-1.617m0.638-2.193-0.638,2.193,1.6,1.617h0l6.384,6.459h0l1.454,1.47,1.02-1.806-9.818-9.934m33.661,28.382L228,570.067l1.4-1.418,8.415,8.513-1.4,1.419m1.7,8.476a0.982,0.982,0,0,1-.7-0.294l-5.223-5.286a1.01,1.01,0,0,1,0-1.419,0.983,0.983,0,0,1,1.4,0l5.224,5.287a1.011,1.011,0,0,1,0,1.418,0.985,0.985,0,0,1-.7.294m9.774-4.375a0.977,0.977,0,0,1-.7-0.294l-8.445-8.543a1.01,1.01,0,0,1,0-1.419,0.981,0.981,0,0,1,1.4,0l8.445,8.543a1.012,1.012,0,0,1,0,1.419,0.98,0.98,0,0,1-.7.294m-1.763,5.312a0.985,0.985,0,0,1-.7-0.294l-5.469-5.534a1.009,1.009,0,0,1,0-1.418,0.981,0.981,0,0,1,1.4,0l5.47,5.533a1.012,1.012,0,0,1,0,1.419,0.984,0.984,0,0,1-.7.294" transform="translate(-195.75 -536)"/>
</svg>
