<svg xmlns="http://www.w3.org/2000/svg" width="46" height="54" viewBox="0 0 46 54">
  <defs>
    <style>
      .cls-1 {
        fill-rule: evenodd;
      }
    </style>
  </defs>
  <path class="cls-1" d="M508,539H495v26h3v-2h-1V541h11v-2m2,0h-2v2h2v22h-1v2h1V539m17-28H510v26h2V513h13v18h2V511m-15,26h-2v2h2v26h1v-2h-1V537m0,2h-2v26h2V539m-13,4h4v2h-4v-2Zm15,0h4v2h-4v-2Zm0-4h4v2h-4v-2Zm0-4h4v2h-4v-2Zm0-4h4v2h-4v-2Zm0-4h9v2h-9v-2Zm0-4h9v2h-9v-2Zm0-4h9v2h-9v-2Zm0-4h9v2h-9v-2Zm-15,32h4v2h-4v-2Zm15,0h4v2h-4v-2Zm-15,4h4v2h-4v-2Zm15,0h4v2h-4v-2Zm-15,4h4v2h-4v-2Zm15,0h4v2h-4v-2Zm-10-12h4v2h-4v-2Zm15,0h4v2h-4v-2Zm0-4h4v2h-4v-2Zm0-4h4v2h-4v-2Zm0-4h4v2h-4v-2Zm-15,16h4v2h-4v-2Zm15,0h4v2h-4v-2Zm-15,4h4v2h-4v-2Zm15,0h4v2h-4v-2Zm-15,4h4v2h-4v-2Zm15,0h4v2h-4v-2Zm-11,8h-1v2h-7v-2h-2v2h10v-2m1,0h-1v2h1v-2m-7,0v-2h3v2h-3m5-4h-7v4h7v-4m0,4h-7v2h7v-2m16,0h-1v2h-7v-2h-1v2h9v-2m-9,0h-1v2h1v-2m3,0v-2h3v2h-3m5-4h-7v4h7v-4m0,4h-7v2h7v-2m14-4h-6v4h2v-2h2v2h2v-4m-9-28h-2v32h-1v2h1V533h2v-2m-3,32h-1v2h1v-2m17-30H529v2h10v28h-1v2h3V533m-12,0h-2v32h1v-2h-1V535h2v-2m-2,0h-2v32h2V533m3,30h-1v2h1v-2m8,0h-2v2h2v-2m-9,0h-1v2h1v-2m7,0h-6v2h6v-2m-7-27h2v6h-2v-6Zm0,8h2v6h-2v-6Zm0,8h2v6h-2v-6Zm6-16h2v6h-2v-6Zm0,8h2v6h-2v-6Zm0,8h2v6h-2v-6Zm-3-16h2v6h-2v-6Zm0,8h2v6h-2v-6Zm0,8h2v6h-2v-6Z" transform="translate(-495 -511)"/>
</svg>
