<svg xmlns="http://www.w3.org/2000/svg" xmlns:xlink="http://www.w3.org/1999/xlink" preserveAspectRatio="xMidYMid" width="55" height="55" viewBox="0 0 55 55">
  <defs>
    <style>
      .cls-1 {
        fill: #000;
        fill-rule: evenodd;
      }
    </style>
  </defs>
  <path d="M27.500,55.000 C12.337,55.000 0.000,42.663 0.000,27.500 C0.000,12.337 12.337,0.000 27.500,0.000 C42.663,0.000 55.000,12.337 55.000,27.500 C55.000,42.663 42.663,55.000 27.500,55.000 ZM28.010,2.000 C13.667,2.000 2.000,13.439 2.000,27.500 C2.000,41.561 13.167,52.500 27.510,52.500 C41.853,52.500 53.000,41.790 53.000,28.010 C53.000,14.230 42.353,2.000 28.010,2.000 ZM32.100,44.000 L21.900,44.000 L21.900,32.100 L10.000,32.100 L10.000,21.900 L21.900,21.900 L21.900,10.000 L32.100,10.000 L32.100,21.900 L44.000,21.900 L44.000,32.100 L32.100,32.100 L32.100,44.000 ZM42.000,30.000 L42.000,24.000 L30.000,24.000 L30.000,12.000 L24.000,12.000 L24.000,24.000 L12.000,24.000 L12.000,30.000 L24.000,30.000 L24.000,42.000 L30.000,42.000 L30.000,30.000 L42.000,30.000 Z" class="cls-1"/>
</svg>
