<svg xmlns="http://www.w3.org/2000/svg" xmlns:xlink="http://www.w3.org/1999/xlink" preserveAspectRatio="xMidYMid" width="51.031" height="45.844" viewBox="0 0 51.031 45.844">
  <defs>
    <style>
      .cls-1 {
        fill: #000;
        fill-rule: evenodd;
      }
    </style>
  </defs>
  <path d="M49.749,15.428 L43.564,18.619 C43.587,18.702 43.615,18.784 43.615,18.876 L43.615,31.861 C43.615,32.210 43.435,32.532 43.140,32.714 C43.025,32.784 41.794,33.521 39.647,34.353 L39.647,37.996 C41.354,38.443 42.623,39.993 42.623,41.850 C42.623,44.053 40.843,45.845 38.655,45.845 C36.466,45.845 34.686,44.053 34.686,41.850 C34.686,39.993 35.956,38.443 37.663,37.996 L37.663,35.048 C34.708,35.989 30.669,36.855 25.757,36.855 C15.234,36.855 8.648,32.882 8.374,32.714 C8.079,32.532 7.898,32.210 7.898,31.861 L7.898,18.876 C7.898,18.866 7.904,18.857 7.904,18.848 L1.275,15.428 C0.468,15.012 0.005,14.357 0.005,13.628 C0.004,12.901 0.468,12.245 1.275,11.828 L23.293,0.471 C24.510,-0.157 26.514,-0.157 27.730,0.471 L49.749,11.828 C50.555,12.245 51.019,12.901 51.019,13.628 C51.020,14.357 50.555,15.012 49.749,15.428 ZM36.670,41.850 C36.670,42.950 37.561,43.847 38.655,43.847 C39.749,43.847 40.639,42.950 40.639,41.850 C40.639,40.748 39.749,39.852 38.655,39.852 C37.561,39.852 36.670,40.748 36.670,41.850 ZM41.631,31.273 L41.631,19.615 L39.604,20.661 C39.620,20.731 39.647,20.798 39.647,20.873 L39.647,32.197 C40.551,31.821 41.221,31.489 41.631,31.273 ZM9.883,31.271 C11.535,32.140 17.370,34.858 25.757,34.858 C30.757,34.858 34.828,33.899 37.663,32.938 L37.663,21.662 L27.730,26.786 C27.122,27.099 26.333,27.273 25.512,27.273 C24.690,27.273 23.902,27.099 23.293,26.786 L9.883,19.868 L9.883,31.271 ZM48.844,13.606 L26.825,2.248 C26.167,1.910 24.857,1.910 24.198,2.248 L2.180,13.606 C2.166,13.614 2.152,13.621 2.138,13.628 C2.152,13.635 2.166,13.643 2.180,13.650 L24.198,25.009 C24.857,25.347 26.167,25.347 26.825,25.009 L48.844,13.650 C48.858,13.643 48.872,13.635 48.886,13.628 C48.872,13.621 48.858,13.614 48.844,13.606 ZM18.263,14.774 L14.295,16.772 C14.153,16.844 14.001,16.878 13.852,16.878 C13.488,16.878 13.138,16.676 12.964,16.325 C12.718,15.832 12.918,15.232 13.408,14.986 L17.376,12.987 C17.866,12.743 18.463,12.941 18.708,13.435 C18.953,13.928 18.753,14.527 18.263,14.774 ZM14.295,12.776 L10.326,14.774 C10.184,14.846 10.033,14.880 9.884,14.880 C9.520,14.880 9.169,14.678 8.996,14.328 C8.750,13.834 8.949,13.234 9.439,12.987 L13.408,10.989 C13.898,10.744 14.492,10.943 14.738,11.437 C14.984,11.930 14.785,12.531 14.295,12.776 Z" class="cls-1"/>
</svg>
