<?xml version="1.0" encoding="UTF-8" standalone="no"?>
<svg width="60px" height="60px" viewBox="0 0 60 60" version="1.1" xmlns="http://www.w3.org/2000/svg" xmlns:xlink="http://www.w3.org/1999/xlink" xmlns:sketch="http://www.bohemiancoding.com/sketch/ns">
    <!-- Generator: Sketch 3.3.3 (12081) - http://www.bohemiancoding.com/sketch -->
    <title>Linkedin</title>
    <desc>Created with Sketch.</desc>
    <defs></defs>
    <g id="outlined" stroke="none" stroke-width="1" fill="none" fill-rule="evenodd" sketch:type="MSPage">
        <g id="Brands_sliced" sketch:type="MSLayerGroup" transform="translate(-720.000000, 0.000000)" fill="#535353">
            <g id="Imported-Layers" transform="translate(2.000000, 4.000000)" sketch:type="MSShapeGroup">
                <path d="M772,47 L762,47 L762,30.127 C762,26.985 759.608,24.33 756.777,24.33 C754.319,24.33 752.696,24.33 751.493,26.921 C751.303,27.331 751,28.884 751,29.633 L751,47 L741.041,47 L741.041,13.956 L751.21,13.956 L751.491,16.747 C752.97,15.394 755.521,13.956 759.69,13.956 C765.618,13.956 772,18.454 772,28.33 L772,47 L772,47 Z M764,45 L770,45 L770,28.33 C770,19.828 764.655,15.956 759.69,15.956 C754.518,15.956 752.408,18.454 751.741,19.528 L751.448,20 L749.81,20 L749.401,15.956 L743.041,15.956 L743.041,45 L749,45 L749,29.633 C749,28.711 749.319,26.854 749.679,26.08 C751.419,22.33 754.266,22.33 756.777,22.33 C760.692,22.33 764,25.9 764,30.127 L764,45 L764,45 Z M727,13.956 L735.988,13.956 L735.988,47 L727,47 L727,13.956 Z M729,45 L733.988,45 L733.988,15.956 L729,15.956 L729,45 Z M731.325,12.267 C728.264,12.267 726.041,10.114 726.041,7.148 C726.041,4.18 728.309,2.026 731.433,2.026 C734.505,2.026 736.7,4.123 736.771,7.125 C736.771,8.554 736.242,9.843 735.282,10.778 C734.281,11.752 732.913,12.267 731.325,12.267 L731.325,12.267 Z M731.433,4.026 C729.404,4.026 728.041,5.281 728.041,7.148 C728.041,8.984 729.392,10.267 731.325,10.267 C732.381,10.267 733.268,9.948 733.888,9.344 C734.457,8.79 734.771,8.01 734.771,7.148 C734.726,5.261 733.416,4.026 731.433,4.026 L731.433,4.026 Z" id="Fill-9"></path>
            </g>
        </g>
    </g>
</svg>