<?xml version="1.0" encoding="UTF-8" standalone="no"?>
<svg width="60px" height="60px" viewBox="0 0 60 60" version="1.1" xmlns="http://www.w3.org/2000/svg" xmlns:xlink="http://www.w3.org/1999/xlink" xmlns:sketch="http://www.bohemiancoding.com/sketch/ns">
    <!-- Generator: Sketch 3.3.3 (12081) - http://www.bohemiancoding.com/sketch -->
    <title>Twitter</title>
    <desc>Created with Sketch.</desc>
    <defs></defs>
    <g id="outlined" stroke="none" stroke-width="1" fill="none" fill-rule="evenodd" sketch:type="MSPage">
        <g id="Brands_sliced" sketch:type="MSLayerGroup" fill="#535353">
            <g id="Imported-Layers" transform="translate(2.000000, 4.000000)" sketch:type="MSShapeGroup">
                <path d="M18.581,50.507 C14.011,50.507 7.419,49.634 1.968,45.474 C1.601,45.194 1.474,44.699 1.659,44.277 C1.845,43.855 2.297,43.615 2.751,43.695 C2.763,43.697 3.981,43.911 5.75,43.911 C8.642,43.911 12.49,43.37 15.508,41.011 C13.013,40.417 9.106,38.65 7.501,33.396 C7.398,33.056 7.482,32.688 7.722,32.426 C7.937,32.193 8.247,32.076 8.558,32.109 C6.246,30.491 3.787,27.565 3.87,22.457 C3.877,22.081 4.092,21.741 4.429,21.575 C4.765,21.41 5.167,21.447 5.467,21.67 C5.62,21.783 5.892,21.96 6.232,22.141 C4.343,19.445 2.278,14.737 5.367,9.378 C5.53,9.095 5.821,8.91 6.147,8.882 C6.479,8.853 6.792,8.987 7.001,9.237 C7.088,9.342 15.813,19.64 26.548,19.755 C26.473,19.221 26.436,18.682 26.436,18.142 C26.436,11.864 31.476,6.756 37.672,6.756 C40.565,6.756 43.285,7.853 45.379,9.857 C46.693,9.822 49.018,9.482 51.34,7.794 C51.635,7.58 52.023,7.542 52.354,7.699 C52.684,7.854 52.903,8.177 52.926,8.541 C52.948,8.893 52.904,10.425 50.856,12.719 C51.643,12.511 52.373,12.241 52.822,11.9 C53.164,11.642 53.632,11.63 53.986,11.87 C54.341,12.11 54.503,12.549 54.39,12.963 C54.283,13.352 53.587,14.928 49.139,19.065 C49.193,22.623 48.526,44.33 24.828,49.946 C24.705,49.973 22.196,50.507 18.581,50.507 L18.581,50.507 Z M6.433,45.901 C10.664,48.005 15.208,48.507 18.581,48.507 C21.967,48.507 24.363,48 24.387,47.995 C34.475,45.604 41.375,39.951 44.876,31.198 C47.495,24.648 47.132,18.767 47.128,18.708 C47.107,18.406 47.225,18.11 47.448,17.905 C48.82,16.643 49.823,15.636 50.555,14.847 C49.212,15.138 48.023,15.243 47.791,15.261 C47.356,15.3 46.94,15.041 46.779,14.629 C46.619,14.218 46.746,13.75 47.093,13.478 C48.321,12.513 49.156,11.664 49.724,10.958 C47.833,11.714 46.151,11.86 45.135,11.86 L44.952,11.859 C44.687,11.854 44.435,11.745 44.251,11.555 C42.5,9.75 40.163,8.756 37.672,8.756 C32.579,8.756 28.436,12.966 28.436,18.142 C28.436,18.93 28.533,19.718 28.725,20.483 C28.798,20.772 28.738,21.079 28.561,21.319 C28.385,21.56 28.11,21.708 27.813,21.726 C17.677,22.308 9.301,14.6 6.477,11.637 C3.874,17.93 9.363,22.81 9.613,23.027 C9.908,23.283 10.027,23.688 9.918,24.062 C9.809,24.437 9.493,24.714 9.107,24.772 C8.007,24.938 6.858,24.621 5.963,24.231 C6.783,30.577 12.629,31.921 12.898,31.979 C13.318,32.071 13.635,32.42 13.682,32.848 C13.729,33.275 13.499,33.686 13.108,33.866 C12.449,34.169 11.606,34.324 10.603,34.324 C10.394,34.324 10.189,34.317 9.993,34.306 C12.359,39.249 17.467,39.311 17.703,39.311 C18.097,39.311 18.458,39.542 18.62,39.901 C18.781,40.261 18.72,40.682 18.458,40.976 C15.038,44.815 10.157,45.799 6.433,45.901 L6.433,45.901 Z" id="Fill-1"></path>
            </g>
        </g>
    </g>
</svg>