<?xml version="1.0" encoding="utf-8"?>
<!-- Generator: Adobe Illustrator 20.1.0, SVG Export Plug-In . SVG Version: 6.00 Build 0)  -->
<svg version="1.1" id="Слой_1" xmlns="http://www.w3.org/2000/svg" xmlns:xlink="http://www.w3.org/1999/xlink" x="0px" y="0px"
	 viewBox="0 0 46 48" style="enable-background:new 0 0 46 48;" xml:space="preserve">
<style type="text/css">
	.st0{fill:#81BC00;}
</style>
<title>Guaranteed</title>
<desc>Created with Sketch.</desc>
<g>
	<path class="st0" d="M44,5v35c0,2.8-2.2,5-5,5s-5-2.2-5-5V5h-2v36h0.1c0.5,3.4,3.4,6,6.9,6s6.4-2.6,6.9-6H46V5H44z"/>
	<path class="st0" d="M30,46H10.4C5.8,46,2,42.2,2,37.6V3c0-0.6,0.4-1,1-1h31c0.6,0,1-0.4,1-1s-0.4-1-1-1H3C1.3,0,0,1.3,0,3v34.6
		C0,43.3,4.7,48,10.4,48H30c0.6,0,1-0.4,1-1S30.6,46,30,46z"/>
	<path class="st0" d="M41,41c0.6,0,1-0.4,1-1V6c0-0.6-0.4-1-1-1s-1,0.4-1,1v34C40,40.6,40.4,41,41,41z"/>
	<path class="st0" d="M37,41c0.6,0,1-0.4,1-1V6c0-0.6-0.4-1-1-1s-1,0.4-1,1v34C36,40.6,36.4,41,37,41z"/>
	<path class="st0" d="M18,21V7c0-0.6-0.4-1-1-1H6C5.4,6,5,6.4,5,7v14c0,0.6,0.4,1,1,1h11C17.6,22,18,21.6,18,21z M16,20H7V8h9V20z"
		/>
	<path class="st0" d="M30,23H19c-0.6,0-1,0.4-1,1v14c0,0.6,0.4,1,1,1h11c0.6,0,1-0.4,1-1V24C31,23.4,30.6,23,30,23z M29,37h-9V25h9
		V37z"/>
	<rect x="19" y="7" class="st0" width="11" height="2"/>
	<rect x="19" y="13" class="st0" width="11" height="2"/>
	<rect x="19" y="19" class="st0" width="11" height="2"/>
	<rect x="6" y="24" class="st0" width="11" height="2"/>
	<rect x="6" y="30" class="st0" width="11" height="2"/>
	<rect x="6" y="36" class="st0" width="11" height="2"/>
</g>
</svg>
