<?xml version="1.0" encoding="utf-8"?>
<!-- Generator: Adobe Illustrator 20.1.0, SVG Export Plug-In . SVG Version: 6.00 Build 0)  -->
<svg version="1.1" id="Слой_1" xmlns="http://www.w3.org/2000/svg" xmlns:xlink="http://www.w3.org/1999/xlink" x="0px" y="0px"
	 viewBox="0 0 44 46" style="enable-background:new 0 0 44 46;" xml:space="preserve">
<style type="text/css">
	.st0{fill:#81BC00;}
</style>
<title>Next Generation</title>
<desc>Created with Sketch.</desc>
<g>
	<path class="st0" d="M1,14c0.6,0,1-0.4,1-1V2h11c0.6,0,1-0.4,1-1s-0.4-1-1-1H1C0.4,0,0,0.4,0,1v12C0,13.6,0.4,14,1,14z"/>
	<path class="st0" d="M13,44H2V33c0-0.6-0.4-1-1-1s-1,0.4-1,1v12c0,0.6,0.4,1,1,1h12c0.6,0,1-0.4,1-1S13.6,44,13,44z"/>
	<path class="st0" d="M43,0H31c-0.6,0-1,0.4-1,1s0.4,1,1,1h11v11c0,0.6,0.4,1,1,1s1-0.4,1-1V1C44,0.4,43.6,0,43,0z"/>
	<path class="st0" d="M43,32c-0.6,0-1,0.4-1,1v11H31c-0.6,0-1,0.4-1,1s0.4,1,1,1h12c0.6,0,1-0.4,1-1V33C44,32.4,43.6,32,43,32z"/>
	<path class="st0" d="M17,9H9c-0.6,0-1,0.4-1,1v8c0,0.6,0.4,1,1,1h8c0.6,0,1-0.4,1-1v-8C18,9.4,17.6,9,17,9z M16,17h-6v-6h6V17z"/>
	<path class="st0" d="M30,19v8c0,0.6,0.4,1,1,1h8c0.6,0,1-0.4,1-1v-8c0-0.6-0.4-1-1-1h-8C30.4,18,30,18.4,30,19z M32,20h6v6h-6V20z"
		/>
	<path class="st0" d="M17,25H9c-0.6,0-1,0.4-1,1v8c0,0.6,0.4,1,1,1h8c0.6,0,1-0.4,1-1v-8C18,25.4,17.6,25,17,25z M16,33h-6v-6h6V33z
		"/>
	<path class="st0" d="M25,14h8c0.6,0,1-0.4,1-1V5c0-0.6-0.4-1-1-1h-8c-0.6,0-1,0.4-1,1v8C24,13.6,24.4,14,25,14z M26,6h6v6h-6V6z"/>
	<path class="st0" d="M31,39v-8c0-0.6-0.4-1-1-1h-8c-0.6,0-1,0.4-1,1v8c0,0.6,0.4,1,1,1h8C30.6,40,31,39.6,31,39z M29,38h-6v-6h6V38
		z"/>
</g>
</svg>
