<?xml version="1.0" encoding="utf-8"?>
<!-- Generator: Adobe Illustrator 20.1.0, SVG Export Plug-In . SVG Version: 6.00 Build 0)  -->
<svg version="1.1" id="Слой_1" xmlns="http://www.w3.org/2000/svg" xmlns:xlink="http://www.w3.org/1999/xlink" x="0px" y="0px"
	 viewBox="0 0 52 48" style="enable-background:new 0 0 52 48;" xml:space="preserve">
<style type="text/css">
	.st0{fill:#81BC00;}
</style>
<title>Unparalleled Energy</title>
<desc>Created with Sketch.</desc>
<g>
	<path class="st0" d="M48.9,23c-0.6,0-1,0.4-1,1c0,12.1-9.9,22-22,22C17.3,46,9.6,41.1,6,33.3l5.2,2.3c0.5,0.2,1.1,0,1.3-0.5
		c0.2-0.5,0-1.1-0.5-1.3l-7.3-3.3c-0.2-0.1-0.5-0.1-0.8,0s-0.4,0.3-0.6,0.5l-3.3,7.3c-0.2,0.5,0,1.1,0.5,1.3
		c0.1,0.1,0.3,0.1,0.4,0.1c0.4,0,0.7-0.2,0.9-0.6l2.2-5C8.1,42.6,16.5,48,25.9,48c13.2,0,24-10.8,24-24C49.9,23.4,49.4,23,48.9,23z"
		/>
	<path class="st0" d="M51.2,8.3c-0.5-0.2-1.1,0-1.3,0.5l-2.3,5.1C43.7,5.4,35.3,0,25.9,0c-13.2,0-24,10.8-24,24c0,0.6,0.4,1,1,1
		s1-0.4,1-1c0-12.1,9.9-22,22-22c8.6,0,16.3,4.9,19.9,12.6l-5.1-2.3c-0.5-0.2-1.1,0-1.3,0.5c-0.2,0.5,0,1.1,0.5,1.3l7.3,3.3
		c0.1,0.1,0.3,0.1,0.4,0.1c0.4,0,0.7-0.2,0.9-0.6l3.3-7.3C51.9,9.1,51.7,8.5,51.2,8.3z"/>
	<path class="st0" d="M26.2,6c-0.5-0.1-0.9,0.1-1.1,0.6l-10,22.5c-0.1,0.3-0.1,0.7,0.1,1c0.2,0.3,0.5,0.5,0.8,0.5h8V42
		c0,0.5,0.3,0.9,0.8,1c0.1,0,0.1,0,0.2,0c0.4,0,0.8-0.2,0.9-0.6l10-22.5c0.1-0.3,0.1-0.7-0.1-1c-0.2-0.3-0.5-0.5-0.8-0.5h-8V7
		C27,6.5,26.7,6.1,26.2,6z M33.5,20.5L26,37.3v-7.8c0-0.6-0.4-1-1-1h-7.4L25,11.7v7.8c0,0.6,0.4,1,1,1H33.5z"/>
</g>
</svg>
