<svg xmlns="http://www.w3.org/2000/svg" xmlns:xlink="http://www.w3.org/1999/xlink" preserveAspectRatio="xMidYMid" width="52" height="22" viewBox="0 0 52 22">
  <defs>
    <style>
      .cls-1 {
        fill: #76b900;
        opacity: 0.8;
        fill-rule: evenodd;
      }
    </style>
  </defs>
  <path d="M41.003,22.000 C41.003,22.000 41.002,22.000 41.002,22.000 L10.998,22.000 C4.934,22.000 0.000,17.065 0.000,11.000 C0.000,4.935 4.934,-0.000 10.998,-0.000 L41.002,-0.000 C41.002,-0.000 41.003,0.000 41.003,0.000 C47.067,0.002 52.000,4.936 52.000,11.000 C52.000,17.064 47.067,21.998 41.003,22.000 ZM10.998,2.000 C6.037,2.000 2.000,6.037 2.000,11.000 C2.000,15.962 6.037,20.000 10.998,20.000 L34.695,20.000 C31.861,18.008 30.000,14.720 30.000,11.000 C30.000,7.280 31.861,3.992 34.695,2.000 L10.998,2.000 ZM41.000,2.000 C36.038,2.000 32.000,6.037 32.000,11.000 C32.000,15.962 36.038,20.000 41.000,20.000 C45.962,20.000 50.000,15.962 50.000,11.000 C50.000,6.037 45.962,2.000 41.000,2.000 ZM41.000,17.001 C37.691,17.001 35.000,14.309 35.000,11.000 C35.000,7.691 37.691,5.000 41.000,5.000 C44.309,5.000 47.000,7.691 47.000,11.000 C47.000,14.309 44.309,17.001 41.000,17.001 ZM41.000,7.000 C38.794,7.000 37.000,8.794 37.000,11.000 C37.000,13.206 38.794,15.000 41.000,15.000 C43.206,15.000 45.000,13.206 45.000,11.000 C45.000,8.794 43.206,7.000 41.000,7.000 ZM17.000,16.000 C14.243,16.000 12.000,13.756 12.000,11.000 C12.000,8.243 14.243,6.000 17.000,6.000 C19.757,6.000 22.000,8.243 22.000,11.000 C22.000,13.756 19.757,16.000 17.000,16.000 ZM17.000,8.000 C15.346,8.000 14.000,9.345 14.000,11.000 C14.000,12.654 15.346,14.000 17.000,14.000 C18.655,14.000 20.000,12.654 20.000,11.000 C20.000,9.345 18.655,8.000 17.000,8.000 Z" class="cls-1"/>
</svg>
