<?xml version="1.0" encoding="utf-8"?>
<!-- Generator: Avocode 2.4.5 - http://avocode.com -->
<svg height="12" width="20" xmlns:xlink="http://www.w3.org/1999/xlink" xmlns="http://www.w3.org/2000/svg" viewBox="0 0 20 12">
    <path fill="#76b900" fill-rule="evenodd" d="M 18.43 7 C 18.43 7 3.43 7 3.43 7 C 3.43 7 6.35 9.92 6.35 9.92 C 6.99 10.56 7.18 11.4 6.77 11.8 C 6.37 12.2 5.53 12.01 4.9 11.38 C 4.9 11.38 0.62 7.1 0.62 7.1 C 0.57 7.05 0.54 6.99 0.5 6.94 C 0.4 6.9 0.3 6.87 0.23 6.8 C 0.07 6.64 0.03 6.41 0.04 6.15 C 0.03 6.1 -0.01 6.05 -0.01 6 C -0.01 5.96 0.02 5.93 0.03 5.9 C 0 5.63 0.04 5.39 0.2 5.23 C 0.3 5.13 0.42 5.08 0.55 5.04 C 0.59 5 0.61 4.96 0.65 4.92 C 0.65 4.92 4.92 0.65 4.92 0.65 C 5.56 0.01 6.4 -0.18 6.8 0.23 C 7.2 0.63 7.01 1.47 6.38 2.1 C 6.38 2.1 3.48 5 3.48 5 C 3.48 5 18.43 5 18.43 5 C 19.3 5 20.01 5.45 20.01 6 C 20.01 6.55 19.3 7 18.43 7 Z" />
</svg>