<?xml version="1.0" encoding="UTF-8" standalone="no"?>
<svg width="60px" height="60px" viewBox="0 0 60 60" version="1.1" xmlns="http://www.w3.org/2000/svg" xmlns:xlink="http://www.w3.org/1999/xlink" xmlns:sketch="http://www.bohemiancoding.com/sketch/ns">
    <!-- Generator: Sketch 3.3.3 (12081) - http://www.bohemiancoding.com/sketch -->
    <title>Crane</title>
    <desc>Created with Sketch.</desc>
    <defs>
        <path id="path-1" d="M0,0 L12,0 L12,54 L0,54 L0,0 Z"></path>
        <path id="path-3" d="M0,0 L28,0 L28,10 L0,10 L0,0 Z"></path>
        <path id="path-5" d="M0,0 L16,0 L16,10 L0,10 L0,0 Z"></path>
        <path id="path-7" d="M0,0 L12,0 L12,6 L0,6 L0,0 Z"></path>
        <path id="path-9" d="M0,0 L8,0 L8,6 L0,6 L0,0 Z"></path>
    </defs>
    <g id="outlined" stroke="none" stroke-width="1" fill="none" fill-rule="evenodd" sketch:type="MSPage">
        <g id="Exterior_sliced" sketch:type="MSLayerGroup" transform="translate(-600.000000, -120.000000)"></g>
        <g id="Imported-EPS" sketch:type="MSLayerGroup" transform="translate(-599.000000, -118.000000)">
            <g id="Page-1">
                <g id="Group-243" transform="translate(616.000000, 122.000000)">
                    <mask id="mask-2" sketch:name="Clip 242" fill="white">
                        <use xlink:href="#path-1"></use>
                    </mask>
                    <g id="Clip-242"></g>
                    <path d="M12,56 L0,56 C-1.104,56 -2,55.104 -2,54 L-2,0 C-2,-1.104 -1.104,-2 0,-2 L12,-2 C13.104,-2 14,-1.104 14,0 L14,54 C14,55.104 13.104,56 12,56 L12,56 Z M2,52 L10,52 L10,2 L2,2 L2,52 Z" id="Fill-241" fill="#535353" sketch:type="MSShapeGroup" mask="url(#mask-2)"></path>
                </g>
                <path d="M616.987,137.013 C616.731,137.013 616.476,136.915 616.28,136.72 C615.89,136.329 615.89,135.696 616.28,135.306 L626.293,125.293 C626.684,124.902 627.316,124.902 627.707,125.293 C628.098,125.684 628.098,126.316 627.707,126.707 L617.694,136.72 C617.499,136.915 617.243,137.013 616.987,137.013" id="Fill-244" fill="#535353" sketch:type="MSShapeGroup"></path>
                <path d="M616.987,146.013 C616.731,146.013 616.476,145.915 616.28,145.72 C615.89,145.329 615.89,144.696 616.28,144.306 L626.293,134.293 C626.684,133.902 627.316,133.902 627.707,134.293 C628.098,134.684 628.098,135.316 627.707,135.707 L617.694,145.72 C617.499,145.915 617.243,146.013 616.987,146.013" id="Fill-245" fill="#535353" sketch:type="MSShapeGroup"></path>
                <path d="M616.987,156.024 C616.731,156.024 616.476,155.927 616.28,155.731 C615.89,155.341 615.89,154.708 616.28,154.317 L626.293,144.305 C626.684,143.914 627.316,143.914 627.707,144.305 C628.098,144.695 628.098,145.328 627.707,145.719 L617.694,155.731 C617.499,155.927 617.243,156.024 616.987,156.024" id="Fill-246" fill="#535353" sketch:type="MSShapeGroup"></path>
                <path d="M616.987,166.038 C616.731,166.038 616.476,165.94 616.28,165.745 C615.89,165.354 615.89,164.721 616.28,164.331 L626.293,154.318 C626.684,153.927 627.316,153.927 627.707,154.318 C628.098,154.708 628.098,155.341 627.707,155.732 L617.694,165.745 C617.499,165.94 617.243,166.038 616.987,166.038" id="Fill-247" fill="#535353" sketch:type="MSShapeGroup"></path>
                <path d="M616.987,176.038 C616.731,176.038 616.476,175.94 616.28,175.745 C615.89,175.354 615.89,174.721 616.28,174.331 L626.293,164.318 C626.684,163.927 627.316,163.927 627.707,164.318 C628.098,164.708 628.098,165.341 627.707,165.732 L617.694,175.745 C617.499,175.94 617.243,176.038 616.987,176.038" id="Fill-248" fill="#535353" sketch:type="MSShapeGroup"></path>
                <path d="M627,137.012 C626.744,137.012 626.488,136.914 626.293,136.719 L616.28,126.707 C615.89,126.316 615.89,125.683 616.28,125.292 C616.671,124.902 617.304,124.902 617.694,125.292 L627.707,135.305 C628.098,135.695 628.098,136.328 627.707,136.719 C627.512,136.914 627.256,137.012 627,137.012" id="Fill-249" fill="#535353" sketch:type="MSShapeGroup"></path>
                <path d="M627,146.012 C626.744,146.012 626.488,145.914 626.293,145.719 L616.28,135.707 C615.89,135.316 615.89,134.683 616.28,134.292 C616.671,133.902 617.304,133.902 617.694,134.292 L627.707,144.305 C628.098,144.695 628.098,145.328 627.707,145.719 C627.512,145.914 627.256,146.012 627,146.012" id="Fill-250" fill="#535353" sketch:type="MSShapeGroup"></path>
                <path d="M627,156.025 C626.744,156.025 626.488,155.927 626.293,155.732 L616.28,145.72 C615.89,145.329 615.89,144.696 616.28,144.306 C616.671,143.915 617.304,143.915 617.694,144.306 L627.707,154.318 C628.098,154.708 628.098,155.341 627.707,155.732 C627.512,155.927 627.256,156.025 627,156.025" id="Fill-251" fill="#535353" sketch:type="MSShapeGroup"></path>
                <path d="M627,166.037 C626.744,166.037 626.488,165.939 626.293,165.744 L616.28,155.731 C615.89,155.341 615.89,154.708 616.28,154.317 C616.671,153.927 617.304,153.927 617.694,154.317 L627.707,164.33 C628.098,164.721 628.098,165.354 627.707,165.744 C627.512,165.939 627.256,166.037 627,166.037" id="Fill-252" fill="#535353" sketch:type="MSShapeGroup"></path>
                <path d="M627,176.037 C626.744,176.037 626.488,175.939 626.293,175.744 L616.28,165.731 C615.89,165.341 615.89,164.708 616.28,164.317 C616.671,163.927 617.304,163.927 617.694,164.317 L627.707,174.33 C628.098,174.721 628.098,175.354 627.707,175.744 C627.512,175.939 627.256,176.037 627,176.037" id="Fill-253" fill="#535353" sketch:type="MSShapeGroup"></path>
                <g id="Group-256" transform="translate(626.000000, 128.000000)">
                    <mask id="mask-4" sketch:name="Clip 255" fill="white">
                        <use xlink:href="#path-3"></use>
                    </mask>
                    <g id="Clip-255"></g>
                    <path d="M28,12 L0,12 C-1.104,12 -2,11.104 -2,10 L-2,0 C-2,-1.104 -1.104,-2 0,-2 L28,-2 C29.104,-2 30,-1.104 30,0 L30,10 C30,11.104 29.104,12 28,12 L28,12 Z M2,8 L26,8 L26,2 L2,2 L2,8 Z" id="Fill-254" fill="#535353" sketch:type="MSShapeGroup" mask="url(#mask-4)"></path>
                </g>
                <g id="Group-259" transform="translate(602.000000, 128.000000)">
                    <mask id="mask-6" sketch:name="Clip 258" fill="white">
                        <use xlink:href="#path-5"></use>
                    </mask>
                    <g id="Clip-258"></g>
                    <path d="M16,12 L0,12 C-1.104,12 -2,11.104 -2,10 L-2,0 C-2,-1.104 -1.104,-2 0,-2 L16,-2 C17.104,-2 18,-1.104 18,0 L18,10 C18,11.104 17.104,12 16,12 L16,12 Z M2,8 L14,8 L14,2 L2,2 L2,8 Z" id="Fill-257" fill="#535353" sketch:type="MSShapeGroup" mask="url(#mask-6)"></path>
                </g>
                <path d="M646,136 L648,136 L648,150.042 L646,150.042 L646,136 Z" id="Fill-260" fill="#535353" sketch:type="MSShapeGroup"></path>
                <path d="M607,137 L609,137 L609,167 L607,167 L607,137 Z" id="Fill-261" fill="#535353" sketch:type="MSShapeGroup"></path>
                <g id="Group-264" transform="translate(602.000000, 170.000000)">
                    <mask id="mask-8" sketch:name="Clip 263" fill="white">
                        <use xlink:href="#path-7"></use>
                    </mask>
                    <g id="Clip-263"></g>
                    <path d="M12,8 L0,8 C-1.104,8 -2,7.104 -2,6 L-2,0 C-2,-1.104 -1.104,-2 0,-2 L12,-2 C13.104,-2 14,-1.104 14,0 L14,6 C14,7.104 13.104,8 12,8 L12,8 Z M2,4 L10,4 L10,2 L2,2 L2,4 Z" id="Fill-262" fill="#535353" sketch:type="MSShapeGroup" mask="url(#mask-8)"></path>
                </g>
                <g id="Group-267" transform="translate(604.000000, 166.000000)">
                    <mask id="mask-10" sketch:name="Clip 266" fill="white">
                        <use xlink:href="#path-9"></use>
                    </mask>
                    <g id="Clip-266"></g>
                    <path d="M8,8 L0,8 C-1.104,8 -2,7.104 -2,6 L-2,0 C-2,-1.104 -1.104,-2 0,-2 L8,-2 C9.104,-2 10,-1.104 10,0 L10,6 C10,7.104 9.104,8 8,8 L8,8 Z M2,4 L6,4 L6,2 L2,2 L2,4 Z" id="Fill-265" fill="#535353" sketch:type="MSShapeGroup" mask="url(#mask-10)"></path>
                </g>
                <path d="M647,159 C644.243,159 642,156.757 642,154 C642,153.448 642.447,153 643,153 C643.553,153 644,153.448 644,154 C644,155.654 645.346,157 647,157 C648.654,157 650,155.654 650,154 C650,152.346 648.654,151 647,151 C646.447,151 646,150.552 646,150 C646,149.448 646.447,149 647,149 C649.757,149 652,151.243 652,154 C652,156.757 649.757,159 647,159" id="Fill-268" fill="#535353" sketch:type="MSShapeGroup"></path>
            </g>
        </g>
    </g>
</svg>