<svg xmlns="http://www.w3.org/2000/svg" xmlns:xlink="http://www.w3.org/1999/xlink" preserveAspectRatio="xMidYMid" width="43.94" height="50" viewBox="0 0 43.94 50">
  <defs>
    <style>
      .cls-1 {
        fill: #76b900;
        opacity: 0.8;
        fill-rule: evenodd;
      }
    </style>
  </defs>
  <path d="M43.948,1.948 C43.952,2.023 43.917,2.094 43.904,2.168 C43.889,2.257 43.892,2.349 43.852,2.433 L37.568,15.496 L43.852,28.559 C44.000,28.868 43.980,29.233 43.797,29.524 C43.615,29.815 43.295,29.992 42.952,29.992 L1.996,29.992 L1.996,50.000 L-0.002,50.000 L-0.002,28.992 L-0.002,23.994 L-0.002,19.994 L-0.002,14.995 L-0.002,1.999 L-0.002,-0.001 L1.996,-0.001 L1.996,0.999 L19.977,0.999 L42.952,0.999 C43.124,0.999 43.290,1.044 43.437,1.126 C43.470,1.144 43.488,1.182 43.519,1.204 C43.623,1.278 43.727,1.355 43.797,1.467 C43.798,1.468 43.798,1.470 43.799,1.471 C43.799,1.472 43.801,1.473 43.801,1.474 C43.837,1.531 43.836,1.599 43.859,1.661 C43.894,1.756 43.943,1.848 43.948,1.948 ZM37.995,9.997 L39.438,6.998 L20.975,6.998 L20.975,9.997 L37.995,9.997 ZM20.975,11.996 L20.975,13.995 L35.841,13.995 L36.840,11.996 L20.975,11.996 ZM1.996,27.993 L41.361,27.993 L39.919,24.993 L1.996,24.993 L1.996,27.993 ZM1.996,22.993 L38.838,22.993 L37.839,20.994 L1.996,20.994 L1.996,22.993 ZM1.996,18.994 L37.033,18.994 L35.590,15.995 L19.977,15.995 L1.996,15.995 L1.996,18.994 ZM1.996,13.995 L18.978,13.995 L18.978,10.997 L18.978,5.998 L18.978,2.999 L1.996,2.999 L1.996,13.995 ZM20.975,2.999 L20.975,4.998 L40.336,4.998 L41.335,2.999 L20.975,2.999 ZM13.222,9.386 L13.527,11.160 C13.591,11.535 13.437,11.913 13.129,12.137 C12.956,12.264 12.749,12.328 12.542,12.328 C12.383,12.328 12.223,12.290 12.077,12.213 L10.487,11.377 L8.896,12.213 C8.560,12.391 8.151,12.362 7.844,12.137 C7.537,11.913 7.383,11.535 7.447,11.160 L7.751,9.386 L6.464,8.131 C6.192,7.865 6.094,7.468 6.211,7.106 C6.329,6.745 6.641,6.481 7.018,6.426 L8.796,6.168 L9.591,4.556 C9.927,3.873 11.047,3.873 11.382,4.556 L12.177,6.168 L13.956,6.426 C14.332,6.481 14.645,6.745 14.763,7.106 C14.879,7.468 14.782,7.865 14.510,8.131 L13.222,9.386 ZM11.371,8.071 C11.044,8.024 10.764,7.819 10.618,7.524 L10.487,7.257 L10.355,7.524 C10.210,7.819 9.929,8.024 9.603,8.071 L9.308,8.114 L9.522,8.322 C9.757,8.552 9.864,8.883 9.809,9.207 L9.759,9.501 L10.022,9.362 C10.168,9.285 10.327,9.247 10.487,9.247 C10.647,9.247 10.806,9.285 10.952,9.362 L11.214,9.501 L11.165,9.207 C11.109,8.883 11.216,8.552 11.452,8.322 L11.665,8.114 L11.371,8.071 Z" class="cls-1"/>
</svg>
