<svg xmlns="http://www.w3.org/2000/svg" xmlns:xlink="http://www.w3.org/1999/xlink" preserveAspectRatio="xMidYMid" width="56" height="55" viewBox="0 0 56 55">
  <defs>
    <style>
      .cls-1 {
        fill: #76b900;
        opacity: 0.8;
        fill-rule: evenodd;
      }
    </style>
  </defs>
  <path d="M55.000,33.000 L51.336,33.000 C49.282,41.565 42.591,48.279 34.000,50.341 L34.000,54.000 C34.000,54.552 33.552,55.000 33.000,55.000 L24.000,55.000 C23.448,55.000 23.000,54.552 23.000,54.000 L23.000,50.339 C14.435,48.283 7.717,41.562 5.661,33.000 L1.000,33.000 C0.448,33.000 0.000,32.553 0.000,32.000 L0.000,23.000 C0.000,22.448 0.448,22.000 1.000,22.000 L5.662,22.000 C7.721,13.413 14.418,6.721 23.000,4.663 L23.000,1.000 C23.000,0.448 23.448,0.000 24.000,0.000 L33.000,0.000 C33.552,0.000 34.000,0.448 34.000,1.000 L34.000,4.662 C42.576,6.719 49.280,13.422 51.338,22.000 L55.000,22.000 C55.552,22.000 56.000,22.448 56.000,23.000 L56.000,32.000 C56.000,32.553 55.552,33.000 55.000,33.000 ZM25.000,53.000 L32.000,53.000 L32.000,46.000 L25.000,46.000 L25.000,53.000 ZM2.000,24.000 L2.000,31.000 L9.000,31.000 L9.000,24.000 L2.000,24.000 ZM32.000,2.000 L25.000,2.000 L25.000,9.000 L32.000,9.000 L32.000,2.000 ZM34.000,6.722 L34.000,10.000 C34.000,10.552 33.552,11.000 33.000,11.000 L24.000,11.000 C23.448,11.000 23.000,10.552 23.000,10.000 L23.000,6.720 C15.528,8.689 9.691,14.523 7.721,22.000 L10.000,22.000 C10.552,22.000 11.000,22.448 11.000,23.000 L11.000,32.000 C11.000,32.553 10.552,33.000 10.000,33.000 L7.724,33.000 C9.691,40.454 15.543,46.308 23.000,48.277 L23.000,45.000 C23.000,44.447 23.448,44.000 24.000,44.000 L33.000,44.000 C33.552,44.000 34.000,44.447 34.000,45.000 L34.000,48.276 C41.479,46.304 47.316,40.459 49.281,33.000 L46.000,33.000 C45.448,33.000 45.000,32.553 45.000,32.000 L45.000,23.000 C45.000,22.448 45.448,22.000 46.000,22.000 L49.279,22.000 C47.310,14.532 41.467,8.690 34.000,6.722 ZM54.000,24.000 L47.000,24.000 L47.000,31.000 L50.263,31.000 C50.419,30.950 50.585,30.925 50.758,30.960 C50.794,30.967 50.821,30.990 50.855,31.000 L54.000,31.000 L54.000,24.000 Z" class="cls-1"/>
</svg>
