<?xml version="1.0" encoding="UTF-8"?>
<svg width="52px" height="48px" viewBox="0 0 52 48" version="1.1" xmlns="http://www.w3.org/2000/svg" xmlns:xlink="http://www.w3.org/1999/xlink">
    <!-- Generator: Sketch 46.2 (44496) - http://www.bohemiancoding.com/sketch -->
    <title>Unparalleled Energy </title>
    <desc>Created with Sketch.</desc>
    <defs></defs>
    <g id="Page-1" stroke="none" stroke-width="1" fill="none" fill-rule="evenodd" stroke-linecap="round" stroke-linejoin="round">
        <g id="FlowControl-Product-Mobile" transform="translate(-134.000000, -1287.000000)" stroke-width="2" stroke="#81BC00">
            <g id="Body" transform="translate(0.000000, 612.000000)">
                <g id="What-makes-our-solution--different?" transform="translate(10.000000, 0.000000)">
                    <g id="Icons" transform="translate(10.000000, 676.000000)">
                        <g id="Unparalleled-Energy-" transform="translate(115.000000, 0.000000)">
                            <g id="Page-1">
                                <path d="M46.2455,14.4661 C42.8565,5.9891 34.5675,0.0001 24.8805,0.0001 C12.1785,0.0001 1.8805,10.2971 1.8805,23.0001 M3.5745,31.6781 C6.9995,40.0791 15.2485,46.0001 24.8805,46.0001 C37.5835,46.0001 47.8805,35.7021 47.8805,23.0001" id="Stroke-1"></path>
                                <polyline id="Stroke-3" points="49.8077 8.1815 46.5537 15.4895 39.2457 12.2355"></polyline>
                                <polyline id="Stroke-5" points="0 37.7761 3.254 30.4681 10.562 33.7221"></polyline>
                            </g>
                            <polygon id="Page-1" points="25.0183486 18.5065159 25.0183486 6 15 28.4934841 23.9816514 28.4934841 23.9816514 41 34 18.5065159"></polygon>
                        </g>
                    </g>
                </g>
            </g>
        </g>
    </g>
</svg>