<svg xmlns="http://www.w3.org/2000/svg" xmlns:xlink="http://www.w3.org/1999/xlink" preserveAspectRatio="xMidYMid" width="44" height="46.88" viewBox="0 0 44 46.88">
  <defs>
    <style>
      .cls-1 {
        fill: #76b900;
        opacity: 0.8;
        fill-rule: evenodd;
      }
    </style>
  </defs>
  <path d="M43.000,34.894 C43.552,34.894 44.000,35.341 44.000,35.892 L44.000,45.872 C44.000,46.424 43.552,46.870 43.000,46.870 L1.000,46.870 C0.448,46.870 0.000,46.424 0.000,45.872 L0.000,35.892 C0.000,35.341 0.448,34.894 1.000,34.894 L17.000,34.894 L17.000,31.900 L1.000,31.900 C0.448,31.900 0.000,31.453 0.000,30.902 L0.000,20.922 C0.000,20.370 0.448,19.923 1.000,19.923 L17.000,19.923 L17.000,13.935 L12.000,13.935 C11.612,13.935 11.259,13.710 11.094,13.360 C10.930,13.009 10.983,12.595 11.232,12.298 L21.232,0.322 C21.612,-0.133 22.388,-0.133 22.768,0.322 L32.768,12.298 C33.017,12.595 33.070,13.009 32.906,13.360 C32.741,13.710 32.388,13.935 32.000,13.935 L27.000,13.935 L27.000,19.923 L43.000,19.923 C43.552,19.923 44.000,20.370 44.000,20.922 L44.000,30.902 C44.000,31.453 43.552,31.900 43.000,31.900 L27.000,31.900 L27.000,34.894 L43.000,34.894 ZM2.000,21.920 L2.000,29.904 L17.000,29.904 L17.000,21.920 L2.000,21.920 ZM29.865,11.939 L22.000,2.520 L14.135,11.939 L18.000,11.939 C18.552,11.939 19.000,12.386 19.000,12.937 L19.000,20.922 L19.000,30.902 L19.000,35.892 C19.000,36.444 18.552,36.890 18.000,36.890 L2.000,36.890 L2.000,44.874 L42.000,44.874 L42.000,36.890 L26.000,36.890 C25.448,36.890 25.000,36.444 25.000,35.892 L25.000,30.902 L25.000,20.922 L25.000,12.937 C25.000,12.386 25.448,11.939 26.000,11.939 L29.865,11.939 ZM42.000,29.904 L42.000,21.920 L27.000,21.920 L27.000,29.904 L42.000,29.904 Z" class="cls-1"/>
</svg>
