<svg xmlns="http://www.w3.org/2000/svg" xmlns:xlink="http://www.w3.org/1999/xlink" preserveAspectRatio="xMidYMid" width="55" height="55" viewBox="0 0 55 55">
  <defs>
    <style>
      .cls-1 {
        fill: #76b900;
        opacity: 0.8;
        fill-rule: evenodd;
      }
    </style>
  </defs>
  <path d="M54.000,54.999 L41.000,54.999 C40.447,54.999 40.000,54.552 40.000,54.000 L40.000,41.000 C40.000,40.448 40.447,40.000 41.000,40.000 L54.000,40.000 C54.553,40.000 55.000,40.448 55.000,41.000 L55.000,54.000 C55.000,54.552 54.553,54.999 54.000,54.999 ZM53.000,41.999 L42.000,41.999 L42.000,52.999 L53.000,52.999 L53.000,41.999 ZM44.496,48.131 L47.022,49.575 L49.581,43.606 C49.799,43.097 50.389,42.863 50.894,43.081 C51.401,43.298 51.637,43.886 51.419,44.394 L48.419,51.394 C48.307,51.656 48.088,51.857 47.817,51.948 C47.714,51.983 47.607,51.999 47.500,51.999 C47.328,51.999 47.156,51.955 47.004,51.868 L43.504,49.868 C43.024,49.594 42.857,48.983 43.132,48.503 C43.405,48.024 44.015,47.856 44.496,48.131 ZM54.000,34.999 L41.000,34.999 C40.447,34.999 40.000,34.552 40.000,33.999 L40.000,20.999 C40.000,20.447 40.447,20.000 41.000,20.000 L54.000,20.000 C54.553,20.000 55.000,20.447 55.000,20.999 L55.000,33.999 C55.000,34.552 54.553,34.999 54.000,34.999 ZM53.000,22.000 L42.000,22.000 L42.000,32.999 L53.000,32.999 L53.000,22.000 ZM54.000,15.000 L41.000,15.000 C40.447,15.000 40.000,14.551 40.000,14.000 L40.000,1.000 C40.000,0.447 40.447,-0.001 41.000,-0.001 L54.000,-0.001 C54.553,-0.001 55.000,0.447 55.000,1.000 L55.000,14.000 C55.000,14.551 54.553,15.000 54.000,15.000 ZM53.000,1.999 L42.000,1.999 L42.000,13.000 L53.000,13.000 L53.000,1.999 ZM44.496,8.132 L47.022,9.575 L49.581,3.605 C49.799,3.098 50.389,2.863 50.894,3.081 C51.401,3.298 51.637,3.886 51.419,4.394 L48.419,11.393 C48.307,11.655 48.088,11.857 47.817,11.948 C47.714,11.982 47.607,12.000 47.500,12.000 C47.328,12.000 47.156,11.955 47.004,11.868 L43.504,9.868 C43.024,9.594 42.857,8.983 43.132,8.503 C43.405,8.024 44.015,7.856 44.496,8.132 ZM34.000,54.999 L21.000,54.999 C20.447,54.999 20.000,54.552 20.000,54.000 L20.000,41.000 C20.000,40.448 20.447,40.000 21.000,40.000 L34.000,40.000 C34.552,40.000 35.000,40.448 35.000,41.000 L35.000,54.000 C35.000,54.552 34.552,54.999 34.000,54.999 ZM33.000,41.999 L22.000,41.999 L22.000,52.999 L33.000,52.999 L33.000,41.999 ZM34.000,34.999 L21.000,34.999 C20.447,34.999 20.000,34.552 20.000,33.999 L20.000,20.999 C20.000,20.447 20.447,20.000 21.000,20.000 L34.000,20.000 C34.552,20.000 35.000,20.447 35.000,20.999 L35.000,33.999 C35.000,34.552 34.552,34.999 34.000,34.999 ZM33.000,22.000 L22.000,22.000 L22.000,32.999 L33.000,32.999 L33.000,22.000 ZM24.496,28.131 L27.023,29.575 L29.581,23.605 C29.799,23.097 30.389,22.864 30.894,23.080 C31.401,23.298 31.637,23.886 31.419,24.394 L28.419,31.393 C28.306,31.655 28.088,31.857 27.817,31.948 C27.714,31.983 27.608,32.000 27.500,32.000 C27.328,32.000 27.156,31.956 27.004,31.868 L23.504,29.868 C23.024,29.594 22.857,28.983 23.132,28.504 C23.405,28.024 24.015,27.856 24.496,28.131 ZM34.000,15.000 L21.000,15.000 C20.447,15.000 20.000,14.551 20.000,14.000 L20.000,1.000 C20.000,0.447 20.447,-0.001 21.000,-0.001 L34.000,-0.001 C34.552,-0.001 35.000,0.447 35.000,1.000 L35.000,14.000 C35.000,14.551 34.552,15.000 34.000,15.000 ZM33.000,1.999 L22.000,1.999 L22.000,13.000 L33.000,13.000 L33.000,1.999 ZM14.000,54.999 L1.000,54.999 C0.447,54.999 0.000,54.552 0.000,54.000 L0.000,41.000 C0.000,40.448 0.447,40.000 1.000,40.000 L14.000,40.000 C14.553,40.000 15.000,40.448 15.000,41.000 L15.000,54.000 C15.000,54.552 14.553,54.999 14.000,54.999 ZM13.000,41.999 L2.000,41.999 L2.000,52.999 L13.000,52.999 L13.000,41.999 ZM14.000,34.999 L1.000,34.999 C0.447,34.999 0.000,34.552 0.000,33.999 L0.000,20.999 C0.000,20.447 0.447,20.000 1.000,20.000 L14.000,20.000 C14.553,20.000 15.000,20.447 15.000,20.999 L15.000,33.999 C15.000,34.552 14.553,34.999 14.000,34.999 ZM13.000,22.000 L2.000,22.000 L2.000,32.999 L13.000,32.999 L13.000,22.000 ZM4.496,28.131 L7.023,29.575 L9.581,23.605 C9.799,23.097 10.389,22.864 10.894,23.080 C11.401,23.298 11.637,23.886 11.419,24.394 L8.419,31.393 C8.307,31.655 8.088,31.857 7.817,31.948 C7.714,31.983 7.608,32.000 7.500,32.000 C7.328,32.000 7.156,31.956 7.004,31.868 L3.504,29.868 C3.024,29.594 2.857,28.983 3.132,28.504 C3.405,28.024 4.015,27.856 4.496,28.131 ZM14.000,15.000 L1.000,15.000 C0.447,15.000 0.000,14.551 0.000,14.000 L0.000,1.000 C0.000,0.447 0.447,-0.001 1.000,-0.001 L14.000,-0.001 C14.553,-0.001 15.000,0.447 15.000,1.000 L15.000,14.000 C15.000,14.551 14.553,15.000 14.000,15.000 ZM13.000,1.999 L2.000,1.999 L2.000,13.000 L13.000,13.000 L13.000,1.999 ZM4.496,8.132 L7.023,9.575 L9.581,3.605 C9.799,3.098 10.389,2.863 10.894,3.081 C11.401,3.298 11.637,3.886 11.419,4.394 L8.419,11.393 C8.307,11.655 8.088,11.857 7.817,11.948 C7.714,11.982 7.608,12.000 7.500,12.000 C7.328,12.000 7.156,11.955 7.004,11.868 L3.504,9.868 C3.024,9.594 2.857,8.983 3.132,8.503 C3.405,8.024 4.015,7.856 4.496,8.132 Z" class="cls-1"/>
</svg>
