<?xml version="1.0" encoding="UTF-8"?>
<svg width="44px" height="46px" viewBox="0 0 44 46" version="1.1" xmlns="http://www.w3.org/2000/svg" xmlns:xlink="http://www.w3.org/1999/xlink">
    <!-- Generator: Sketch 46.2 (44496) - http://www.bohemiancoding.com/sketch -->
    <title>Next Generation</title>
    <desc>Created with Sketch.</desc>
    <defs></defs>
    <g id="Page-1" stroke="none" stroke-width="1" fill="none" fill-rule="evenodd" stroke-linecap="round" stroke-linejoin="round">
        <g id="FlowControl-Product-v2" transform="translate(-254.000000, -1599.000000)" stroke-width="2" stroke="#81BC00">
            <g id="Body" transform="translate(0.000000, 1135.000000)">
                <g id="What-makes-our-solution--different?" transform="translate(151.000000, 0.000000)">
                    <g id="Icons" transform="translate(0.000000, 434.000000)">
                        <g id="Next-Generation" transform="translate(104.000000, 31.000000)">
                            <polyline id="Stroke-1" points="0 12 0 0 12 0"></polyline>
                            <polyline id="Stroke-2" points="0 32 0 44 12 44"></polyline>
                            <polyline id="Stroke-3" points="42 12 42 0 30 0"></polyline>
                            <polyline id="Stroke-4" points="42 32 42 44 30 44"></polyline>
                            <polygon id="Stroke-7" points="8 17 16 17 16 9 8 9"></polygon>
                            <polygon id="Stroke-11" points="30 26 38 26 38 18 30 18"></polygon>
                            <polygon id="Stroke-15" points="8 33 16 33 16 25 8 25"></polygon>
                            <polygon id="Stroke-19" points="24 12 32 12 32 4 24 4"></polygon>
                            <polygon id="Stroke-23" points="21 38 29 38 29 30 21 30"></polygon>
                        </g>
                    </g>
                </g>
            </g>
        </g>
    </g>
</svg>