<svg xmlns="http://www.w3.org/2000/svg" xmlns:xlink="http://www.w3.org/1999/xlink" preserveAspectRatio="xMidYMid" width="25" height="55" viewBox="0 0 25 55">
  <defs>
    <style>
      .cls-1 {
        fill: #76b900;
        fill-rule: evenodd;
      }
    </style>
  </defs>
  <path d="M12.500,55.000 C5.607,55.000 0.000,49.424 0.000,42.571 C0.000,37.384 3.186,32.812 8.000,30.972 L8.000,15.000 L8.000,14.005 L8.000,4.501 C8.000,2.019 10.018,0.001 12.500,0.001 C14.982,0.001 17.000,2.019 17.000,4.501 L17.000,14.005 L17.000,15.000 L17.000,30.972 C21.814,32.812 25.000,37.384 25.000,42.571 C25.000,49.424 19.392,55.000 12.500,55.000 ZM15.000,4.501 C15.000,3.122 13.878,1.999 12.500,1.999 C11.122,1.999 10.000,3.122 10.000,4.501 L10.000,6.000 L12.000,6.000 C12.552,6.000 13.000,6.448 13.000,7.000 C13.000,7.552 12.552,8.000 12.000,8.000 L10.000,8.000 L10.000,13.000 L15.000,13.000 L15.000,4.501 ZM15.698,32.635 C15.282,32.503 15.000,32.118 15.000,31.681 L15.000,15.004 L10.000,15.004 L10.000,20.000 L12.000,20.000 C12.552,20.000 13.000,20.448 13.000,21.000 C13.000,21.553 12.552,21.999 12.000,21.999 L10.000,21.999 L10.000,27.000 L12.000,27.000 C12.552,27.000 13.000,27.447 13.000,28.000 C13.000,28.552 12.552,29.000 12.000,29.000 L10.000,29.000 L10.000,31.681 C10.000,32.118 9.718,32.503 9.302,32.635 C4.934,34.020 2.000,38.013 2.000,42.571 C2.000,48.321 6.711,53.000 12.500,53.000 C18.289,53.000 23.000,48.321 23.000,42.571 C23.000,38.013 20.065,34.020 15.698,32.635 Z" class="cls-1"/>
</svg>
