<svg xmlns="http://www.w3.org/2000/svg" xmlns:xlink="http://www.w3.org/1999/xlink" preserveAspectRatio="xMidYMid" width="84.062" height="85" viewBox="0 0 84.062 85">
  <defs>
    <style>
      .cls-1 {
        fill: #76b900;
        fill-rule: evenodd;
      }
    </style>
  </defs>
  <path d="M62.735,42.117 L81.451,8.996 L84.049,10.496 L64.709,44.720 C67.422,48.824 69.013,53.731 69.013,59.007 C69.013,73.342 57.344,85.004 43.002,85.004 C28.659,85.004 16.991,73.342 16.991,59.007 C16.991,53.981 18.449,49.299 20.931,45.318 L0.014,10.487 L2.655,8.992 L22.842,42.608 C25.672,39.141 29.379,36.421 33.618,34.773 L14.014,1.487 L16.655,-0.008 L36.580,33.823 C38.636,33.299 40.785,33.011 43.002,33.011 C45.191,33.011 47.314,33.293 49.345,33.806 L68.451,-0.004 L71.049,1.496 L52.268,34.731 C56.346,36.297 59.936,38.856 62.735,42.117 ZM43.002,34.984 C35.236,34.984 28.340,38.713 23.953,44.457 L23.986,44.513 L23.855,44.587 C20.829,48.605 19.011,53.584 19.011,58.991 C19.011,72.228 29.774,82.998 43.002,82.998 C56.230,82.998 66.992,72.228 66.992,58.991 C66.992,45.754 56.230,34.984 43.002,34.984 ZM43.002,77.993 C32.525,77.993 24.000,69.468 24.000,58.992 C24.000,48.515 32.525,39.991 43.002,39.991 C53.479,39.991 62.004,48.515 62.004,58.992 C62.004,69.468 53.479,77.993 43.002,77.993 ZM43.002,41.997 C33.620,41.997 25.988,49.621 25.988,58.991 C25.988,68.361 33.620,75.985 43.002,75.985 C52.384,75.985 60.016,68.361 60.016,58.991 C60.016,49.621 52.384,41.997 43.002,41.997 ZM44.000,69.000 C43.448,69.000 43.000,68.552 43.000,68.000 L43.000,53.317 L40.595,55.723 C40.231,56.086 39.643,56.086 39.279,55.723 C38.916,55.359 38.916,54.771 39.279,54.407 L43.083,50.603 C43.237,50.249 43.589,50.000 44.000,50.000 C44.018,50.000 44.032,50.009 44.050,50.010 C44.293,50.006 44.537,50.094 44.723,50.279 C44.909,50.466 44.996,50.712 44.991,50.956 C44.992,50.972 45.000,50.984 45.000,51.000 L45.000,68.000 C45.000,68.552 44.552,69.000 44.000,69.000 Z" class="cls-1"/>
</svg>
