<svg xmlns="http://www.w3.org/2000/svg" xmlns:xlink="http://www.w3.org/1999/xlink" preserveAspectRatio="xMidYMid" width="54" height="54" viewBox="0 0 54 54">
  <defs>
    <style>
      .cls-1 {
        fill: #76b900;
        fill-rule: evenodd;
      }
    </style>
  </defs>
  <path d="M27.000,54.000 C12.112,54.000 0.000,41.888 0.000,27.000 C0.000,12.112 12.112,-0.001 27.000,-0.001 C41.888,-0.001 54.000,12.112 54.000,27.000 C54.000,41.888 41.888,54.000 27.000,54.000 ZM27.000,2.000 C13.215,2.000 2.000,13.214 2.000,27.000 C2.000,40.785 13.215,52.000 27.000,52.000 C40.785,52.000 52.000,40.785 52.000,27.000 C52.000,13.214 40.785,2.000 27.000,2.000 ZM26.903,38.929 C26.774,39.201 26.529,39.400 26.237,39.471 C26.158,39.491 26.079,39.499 26.000,39.499 C25.784,39.499 25.572,39.430 25.397,39.297 L16.460,32.531 C16.019,32.198 15.932,31.571 16.266,31.131 C16.598,30.690 17.225,30.602 17.666,30.937 L25.625,36.962 L35.097,17.070 C35.335,16.573 35.929,16.360 36.430,16.597 C36.929,16.834 37.141,17.432 36.903,17.930 L26.903,38.929 Z" class="cls-1"/>
</svg>
