<svg xmlns="http://www.w3.org/2000/svg" xmlns:xlink="http://www.w3.org/1999/xlink" preserveAspectRatio="xMidYMid" width="56.687" height="53.79" viewBox="0 0 56.687 53.79">
  <defs>
    <style>
      .cls-1 {
        fill: #76b900;
        fill-rule: evenodd;
      }
    </style>
  </defs>
  <path d="M54.353,28.664 L53.890,28.780 C53.866,29.711 53.730,30.629 53.483,31.527 L53.892,31.774 C54.600,32.204 55.100,32.886 55.300,33.693 C55.501,34.503 55.375,35.344 54.947,36.063 C54.523,36.778 53.847,37.283 53.047,37.485 C52.245,37.688 51.414,37.564 50.708,37.134 L50.299,36.885 C49.629,37.526 48.891,38.079 48.090,38.537 L48.206,39.006 C48.405,39.814 48.283,40.653 47.859,41.368 C47.435,42.083 46.757,42.588 45.953,42.791 C45.703,42.854 45.450,42.885 45.199,42.885 C44.645,42.885 44.100,42.734 43.613,42.438 C42.905,42.008 42.405,41.327 42.206,40.517 L42.090,40.049 C41.170,40.024 40.262,39.886 39.374,39.639 L39.128,40.051 C38.703,40.768 38.028,41.274 37.229,41.475 C36.426,41.677 35.597,41.550 34.886,41.118 C34.178,40.689 33.679,40.007 33.478,39.196 C33.279,38.387 33.402,37.547 33.827,36.832 L34.073,36.419 C33.438,35.743 32.891,34.996 32.438,34.187 L31.976,34.304 C30.325,34.720 28.642,33.697 28.230,32.026 C28.030,31.216 28.154,30.376 28.579,29.660 C29.004,28.944 29.679,28.439 30.479,28.237 L30.942,28.121 C30.966,27.192 31.102,26.271 31.348,25.374 L30.940,25.126 C30.231,24.696 29.731,24.014 29.532,23.207 C29.332,22.398 29.456,21.558 29.884,20.838 C30.309,20.123 30.985,19.617 31.785,19.415 C32.589,19.211 33.418,19.338 34.125,19.768 L34.533,20.016 C35.203,19.375 35.941,18.822 36.741,18.364 L36.627,17.897 C36.214,16.225 37.226,14.527 38.879,14.109 C40.536,13.691 42.214,14.713 42.627,16.383 L42.743,16.851 C43.662,16.876 44.571,17.014 45.459,17.262 L45.704,16.848 C46.130,16.133 46.804,15.627 47.602,15.426 C48.405,15.223 49.235,15.350 49.947,15.782 C50.653,16.212 51.154,16.894 51.354,17.704 C51.553,18.514 51.430,19.354 51.006,20.068 L50.760,20.482 C51.394,21.159 51.941,21.905 52.395,22.715 L52.856,22.598 C54.508,22.184 56.190,23.202 56.603,24.874 C57.015,26.547 56.006,28.246 54.353,28.664 ZM54.669,25.363 C54.519,24.756 53.935,24.404 53.339,24.551 L52.116,24.859 C51.653,24.977 51.180,24.749 50.975,24.316 C50.451,23.206 49.730,22.219 48.828,21.385 C48.479,21.063 48.404,20.535 48.647,20.124 L49.298,19.031 C49.448,18.777 49.492,18.479 49.421,18.192 C49.349,17.905 49.172,17.662 48.920,17.508 C48.665,17.354 48.370,17.309 48.086,17.380 C47.802,17.452 47.563,17.631 47.412,17.886 L46.762,18.979 C46.517,19.390 46.021,19.571 45.575,19.409 C44.426,18.997 43.228,18.814 42.009,18.869 C41.540,18.886 41.112,18.572 40.998,18.107 L40.694,16.870 C40.548,16.277 39.950,15.916 39.362,16.064 C38.773,16.212 38.412,16.816 38.559,17.410 L38.864,18.646 C38.980,19.110 38.754,19.592 38.326,19.799 C37.229,20.327 36.253,21.057 35.428,21.967 C35.107,22.321 34.587,22.397 34.181,22.151 L33.098,21.494 C32.849,21.343 32.554,21.297 32.269,21.369 C31.983,21.441 31.742,21.621 31.592,21.877 C31.439,22.132 31.393,22.432 31.464,22.718 C31.535,23.005 31.713,23.247 31.966,23.399 L33.047,24.057 C33.454,24.303 33.632,24.806 33.473,25.257 C33.065,26.419 32.885,27.632 32.939,28.862 C32.961,29.340 32.645,29.767 32.185,29.883 L30.961,30.192 C30.677,30.264 30.438,30.442 30.287,30.697 C30.136,30.951 30.092,31.250 30.163,31.538 C30.311,32.144 30.892,32.499 31.494,32.349 L32.716,32.041 C33.179,31.924 33.652,32.152 33.857,32.585 C34.381,33.696 35.103,34.681 36.004,35.515 C36.353,35.839 36.429,36.366 36.184,36.776 L35.535,37.869 C35.384,38.123 35.340,38.421 35.411,38.709 C35.483,38.996 35.660,39.238 35.912,39.391 C36.167,39.547 36.463,39.592 36.747,39.520 C37.030,39.449 37.269,39.269 37.420,39.015 L38.069,37.922 C38.313,37.511 38.812,37.330 39.256,37.491 C40.406,37.903 41.608,38.084 42.824,38.031 C42.838,38.030 42.852,38.030 42.867,38.030 C43.322,38.030 43.722,38.343 43.834,38.793 L44.139,40.030 C44.209,40.317 44.388,40.559 44.638,40.711 C44.891,40.863 45.188,40.908 45.470,40.837 C45.758,40.764 46.000,40.584 46.151,40.331 C46.300,40.078 46.344,39.781 46.273,39.492 L45.968,38.255 C45.854,37.790 46.078,37.309 46.507,37.103 C47.604,36.573 48.580,35.844 49.404,34.934 C49.726,34.579 50.247,34.504 50.652,34.749 L51.733,35.407 C51.983,35.559 52.276,35.603 52.564,35.531 C52.849,35.460 53.089,35.279 53.240,35.025 C53.393,34.768 53.438,34.468 53.367,34.182 C53.297,33.895 53.119,33.654 52.867,33.501 L51.785,32.844 C51.378,32.598 51.200,32.095 51.359,31.645 C51.768,30.483 51.947,29.270 51.893,28.039 C51.872,27.560 52.188,27.133 52.647,27.017 L53.871,26.709 C54.458,26.561 54.816,25.957 54.669,25.363 ZM43.417,32.511 C43.083,32.596 42.746,32.636 42.416,32.636 C40.561,32.636 38.869,31.363 38.399,29.464 C38.131,28.379 38.298,27.254 38.868,26.295 C39.437,25.337 40.342,24.661 41.414,24.389 C42.491,24.119 43.602,24.288 44.548,24.863 C45.496,25.439 46.165,26.353 46.434,27.438 C46.985,29.677 45.632,31.952 43.417,32.511 ZM44.499,27.926 C44.361,27.362 44.014,26.887 43.522,26.590 C43.183,26.384 42.805,26.278 42.420,26.278 C42.246,26.278 42.070,26.300 41.897,26.344 C41.340,26.484 40.871,26.835 40.575,27.332 C40.281,27.830 40.194,28.413 40.333,28.975 C40.620,30.137 41.789,30.847 42.935,30.557 C43.493,30.417 43.962,30.066 44.258,29.569 C44.553,29.072 44.638,28.488 44.499,27.926 ZM28.040,13.167 L27.806,13.205 C27.721,13.863 27.568,14.507 27.349,15.133 L27.540,15.274 C28.120,15.700 28.500,16.327 28.612,17.039 C28.725,17.754 28.554,18.472 28.131,19.059 C27.710,19.645 27.088,20.030 26.380,20.144 C25.672,20.255 24.965,20.085 24.387,19.660 L24.196,19.520 C23.676,19.924 23.116,20.270 22.523,20.556 L22.560,20.793 C22.791,22.268 21.791,23.658 20.330,23.892 C20.188,23.915 20.045,23.926 19.904,23.926 C19.343,23.926 18.797,23.747 18.335,23.409 C17.755,22.983 17.374,22.354 17.263,21.640 L17.225,21.404 C16.574,21.318 15.936,21.163 15.317,20.941 L15.178,21.135 C14.309,22.343 12.630,22.611 11.433,21.733 C10.237,20.854 9.970,19.156 10.838,17.948 L10.977,17.754 C10.577,17.228 10.235,16.663 9.953,16.062 L9.718,16.101 C9.011,16.212 8.302,16.042 7.726,15.620 C7.146,15.193 6.765,14.564 6.653,13.846 C6.541,13.132 6.711,12.416 7.131,11.830 C7.551,11.243 8.173,10.858 8.880,10.744 L9.114,10.708 C9.199,10.048 9.353,9.405 9.571,8.779 L9.380,8.639 C8.801,8.214 8.420,7.586 8.307,6.872 C8.195,6.158 8.366,5.441 8.789,4.852 C9.659,3.644 11.338,3.374 12.533,4.252 L12.724,4.392 C13.245,3.988 13.804,3.642 14.398,3.356 L14.361,3.120 C14.248,2.405 14.417,1.689 14.837,1.105 C15.258,0.519 15.880,0.134 16.591,0.021 C18.040,-0.214 19.427,0.796 19.658,2.271 L19.695,2.508 C20.347,2.594 20.985,2.749 21.603,2.970 L21.743,2.777 C22.163,2.191 22.784,1.806 23.490,1.693 C24.192,1.576 24.904,1.752 25.486,2.179 C26.066,2.605 26.447,3.234 26.559,3.949 C26.672,4.664 26.502,5.380 26.081,5.965 L25.942,6.158 C26.342,6.683 26.685,7.248 26.968,7.849 L27.202,7.811 C28.653,7.578 30.035,8.588 30.267,10.065 C30.380,10.780 30.210,11.496 29.789,12.083 C29.367,12.669 28.747,13.054 28.040,13.167 ZM27.513,9.802 L26.511,9.961 C26.051,10.036 25.588,9.769 25.422,9.319 C25.086,8.413 24.590,7.593 23.945,6.883 C23.625,6.530 23.595,5.998 23.873,5.611 L24.468,4.781 C24.577,4.630 24.621,4.448 24.592,4.265 C24.563,4.081 24.465,3.918 24.316,3.809 C24.165,3.699 23.985,3.650 23.802,3.682 C23.621,3.711 23.463,3.810 23.355,3.961 L22.757,4.790 C22.478,5.178 21.970,5.312 21.538,5.114 C20.671,4.714 19.746,4.490 18.790,4.449 C18.316,4.427 17.923,4.073 17.850,3.600 L17.691,2.586 C17.631,2.209 17.277,1.945 16.901,2.009 C16.718,2.040 16.558,2.138 16.450,2.288 C16.343,2.437 16.299,2.620 16.327,2.803 L16.487,3.818 C16.562,4.291 16.295,4.752 15.851,4.919 C14.956,5.257 14.145,5.759 13.442,6.411 C13.092,6.736 12.566,6.766 12.182,6.484 L11.361,5.881 C11.058,5.658 10.625,5.725 10.400,6.037 C10.291,6.189 10.246,6.374 10.275,6.556 C10.304,6.739 10.401,6.899 10.551,7.009 L11.372,7.611 C11.756,7.894 11.889,8.409 11.692,8.845 C11.296,9.721 11.075,10.656 11.034,11.623 C11.013,12.101 10.662,12.500 10.194,12.573 L9.191,12.734 C9.011,12.763 8.852,12.861 8.744,13.012 C8.636,13.163 8.592,13.348 8.621,13.531 C8.650,13.718 8.747,13.880 8.896,13.989 C9.043,14.097 9.227,14.142 9.407,14.111 L10.410,13.950 C10.875,13.881 11.333,14.144 11.498,14.594 C11.832,15.497 12.330,16.318 12.976,17.030 C13.296,17.383 13.326,17.915 13.046,18.302 L12.450,19.132 C12.228,19.441 12.297,19.878 12.605,20.103 C12.919,20.334 13.340,20.266 13.567,19.951 L14.163,19.121 C14.355,18.854 14.658,18.707 14.969,18.707 C15.108,18.707 15.249,18.736 15.382,18.798 C16.250,19.197 17.174,19.422 18.130,19.464 C18.603,19.485 18.996,19.839 19.070,20.311 L19.230,21.325 C19.259,21.508 19.356,21.670 19.505,21.778 C19.653,21.887 19.833,21.932 20.019,21.902 C20.400,21.841 20.652,21.491 20.593,21.107 L20.434,20.094 C20.360,19.622 20.625,19.161 21.069,18.994 C21.965,18.654 22.777,18.153 23.479,17.501 C23.829,17.177 24.356,17.148 24.738,17.428 L25.558,18.031 C25.705,18.140 25.888,18.180 26.068,18.155 C26.251,18.126 26.410,18.027 26.519,17.876 C26.628,17.723 26.673,17.538 26.645,17.356 C26.616,17.173 26.517,17.013 26.369,16.902 L25.549,16.300 C25.165,16.019 25.031,15.504 25.227,15.068 C25.624,14.189 25.846,13.254 25.887,12.290 C25.908,11.810 26.259,11.413 26.727,11.338 L27.728,11.177 C27.910,11.149 28.068,11.050 28.176,10.900 C28.284,10.749 28.328,10.565 28.300,10.381 C28.239,9.995 27.889,9.733 27.513,9.802 ZM21.311,14.050 C20.623,15.009 19.546,15.518 18.456,15.518 C17.737,15.518 17.013,15.298 16.388,14.839 C15.627,14.279 15.125,13.454 14.979,12.514 C14.831,11.573 15.055,10.632 15.609,9.862 C16.750,8.272 18.958,7.918 20.532,9.073 C22.104,10.228 22.454,12.460 21.313,14.049 L21.311,14.050 ZM19.361,10.702 C19.090,10.504 18.775,10.407 18.462,10.407 C17.988,10.407 17.519,10.628 17.220,11.045 C16.980,11.380 16.883,11.790 16.947,12.198 C17.010,12.608 17.228,12.966 17.559,13.210 C18.245,13.712 19.205,13.556 19.701,12.867 C20.197,12.174 20.044,11.205 19.361,10.702 ZM8.611,30.000 C9.356,29.577 10.145,29.247 10.966,29.013 L10.966,28.593 C10.966,26.929 12.306,25.575 13.954,25.575 C15.602,25.575 16.943,26.929 16.943,28.593 L16.943,29.013 C17.764,29.247 18.552,29.577 19.297,30.000 L19.592,29.702 C20.155,29.132 20.904,28.817 21.701,28.816 C21.701,28.816 21.702,28.816 21.703,28.816 C22.500,28.816 23.250,29.132 23.816,29.705 C24.982,30.882 24.982,32.798 23.818,33.975 L23.523,34.272 C23.941,35.027 24.268,35.823 24.499,36.653 L24.915,36.653 C26.561,36.653 27.901,38.008 27.901,39.674 C27.901,41.339 26.561,42.695 24.915,42.695 L24.499,42.695 C24.268,43.524 23.941,44.321 23.523,45.076 L23.818,45.373 C24.382,45.943 24.693,46.700 24.693,47.505 C24.694,48.311 24.382,49.070 23.816,49.643 C22.652,50.820 20.756,50.822 19.592,49.645 L19.297,49.347 C18.552,49.770 17.764,50.101 16.943,50.334 L16.943,50.754 C16.943,52.419 15.602,53.772 13.954,53.772 C12.306,53.772 10.966,52.419 10.966,50.754 L10.966,50.334 C10.145,50.101 9.356,49.770 8.611,49.347 L8.317,49.646 C7.753,50.216 7.004,50.530 6.207,50.530 C6.207,50.530 6.206,50.530 6.206,50.530 C5.409,50.530 4.658,50.216 4.092,49.643 C2.927,48.465 2.926,46.550 4.090,45.373 L4.385,45.076 C3.966,44.322 3.640,43.526 3.409,42.695 L2.993,42.695 C1.346,42.695 0.008,41.339 0.008,39.674 C0.008,38.008 1.346,36.653 2.993,36.653 L3.409,36.653 C3.640,35.823 3.966,35.025 4.385,34.272 L4.090,33.975 C3.525,33.405 3.215,32.647 3.215,31.843 C3.214,31.036 3.525,30.277 4.092,29.705 C5.256,28.527 7.152,28.525 8.317,29.702 L8.611,30.000 ZM6.908,31.127 C6.521,30.735 5.889,30.737 5.501,31.128 C5.311,31.321 5.206,31.574 5.207,31.842 C5.207,32.108 5.310,32.359 5.499,32.550 L6.347,33.408 C6.682,33.747 6.735,34.277 6.473,34.677 C5.836,35.649 5.397,36.719 5.168,37.860 C5.074,38.330 4.665,38.666 4.192,38.666 L2.993,38.666 C2.446,38.666 2.000,39.119 2.000,39.674 C2.000,40.238 2.436,40.680 2.993,40.680 L4.192,40.680 C4.665,40.680 5.074,41.019 5.168,41.487 C5.397,42.628 5.836,43.698 6.473,44.671 C6.735,45.070 6.682,45.600 6.347,45.940 L5.500,46.797 C5.112,47.188 5.113,47.827 5.501,48.219 C5.691,48.411 5.941,48.516 6.206,48.516 L6.206,48.516 C6.470,48.516 6.719,48.411 6.908,48.221 L7.756,47.364 C7.948,47.169 8.204,47.068 8.461,47.068 C8.651,47.068 8.843,47.124 9.010,47.236 C9.973,47.881 11.033,48.325 12.159,48.555 C12.624,48.650 12.958,49.064 12.958,49.542 L12.958,50.754 C12.958,51.308 13.404,51.758 13.954,51.758 C14.512,51.758 14.950,51.317 14.950,50.754 L14.950,49.542 C14.950,49.064 15.284,48.650 15.749,48.555 C16.875,48.325 17.935,47.881 18.898,47.236 C19.291,46.972 19.816,47.024 20.152,47.364 L21.000,48.220 C21.389,48.613 22.019,48.610 22.407,48.219 C22.597,48.027 22.702,47.774 22.701,47.506 C22.701,47.239 22.598,46.987 22.409,46.797 L21.560,45.940 C21.226,45.600 21.173,45.070 21.434,44.671 C22.073,43.698 22.512,42.626 22.740,41.487 C22.834,41.019 23.243,40.680 23.717,40.680 L24.915,40.680 C25.463,40.680 25.908,40.229 25.908,39.674 C25.908,39.119 25.463,38.666 24.915,38.666 L23.717,38.666 C23.243,38.666 22.834,38.330 22.740,37.860 C22.512,36.721 22.073,35.650 21.434,34.677 C21.173,34.277 21.226,33.747 21.560,33.408 L22.409,32.551 C22.796,32.159 22.795,31.521 22.407,31.128 C22.218,30.936 21.968,30.831 21.703,30.831 C21.702,30.831 21.702,30.831 21.702,30.831 C21.438,30.831 21.189,30.936 21.001,31.126 L20.152,31.985 C19.816,32.323 19.291,32.376 18.898,32.110 C17.935,31.467 16.875,31.023 15.749,30.792 C15.284,30.697 14.950,30.284 14.950,29.805 L14.950,28.593 C14.950,28.040 14.504,27.589 13.954,27.589 C13.395,27.589 12.958,28.030 12.958,28.593 L12.958,29.805 C12.958,30.284 12.624,30.697 12.159,30.792 C11.033,31.023 9.973,31.467 9.010,32.110 C8.616,32.376 8.091,32.322 7.756,31.985 L6.908,31.127 ZM13.954,35.645 C16.152,35.645 17.939,37.453 17.939,39.674 C17.939,41.895 16.152,43.702 13.954,43.702 C11.757,43.702 9.969,41.895 9.969,39.674 C9.969,37.453 11.757,35.645 13.954,35.645 ZM13.954,41.688 C15.053,41.688 15.947,40.785 15.947,39.674 C15.947,38.563 15.053,37.660 13.954,37.660 C12.856,37.660 11.961,38.563 11.961,39.674 C11.961,40.785 12.856,41.688 13.954,41.688 Z" class="cls-1"/>
</svg>
