<svg xmlns="http://www.w3.org/2000/svg" xmlns:xlink="http://www.w3.org/1999/xlink" preserveAspectRatio="xMidYMid" width="44.76" height="44.74" viewBox="0 0 44.76 44.74">
  <defs>
    <style>
      .cls-1 {
        fill: #76b900;
        fill-rule: evenodd;
      }
    </style>
  </defs>
  <path d="M43.755,16.832 C43.653,16.832 43.549,16.817 43.447,16.784 L37.034,14.724 L29.020,19.313 C29.408,20.234 29.631,21.246 29.631,22.313 C29.631,23.381 29.409,24.393 29.020,25.313 L37.034,29.902 L43.447,27.842 C43.973,27.674 44.538,27.960 44.707,28.481 C44.878,29.002 44.589,29.563 44.064,29.731 L38.087,31.652 L39.399,37.744 C39.514,38.280 39.169,38.808 38.629,38.922 C38.558,38.938 38.488,38.945 38.418,38.945 C37.956,38.945 37.541,38.625 37.441,38.159 L36.034,31.621 L27.990,27.017 C26.860,28.462 25.240,29.455 23.380,29.725 L23.380,38.518 L28.559,42.993 C28.976,43.352 29.019,43.980 28.656,44.394 C28.458,44.618 28.180,44.735 27.901,44.735 C27.668,44.735 27.434,44.653 27.244,44.490 L22.379,40.285 L17.514,44.490 C17.097,44.850 16.465,44.807 16.101,44.394 C15.739,43.980 15.782,43.352 16.199,42.993 L21.378,38.518 L21.378,29.725 C19.518,29.455 17.898,28.462 16.768,27.017 L8.724,31.621 L7.317,38.159 C7.217,38.625 6.801,38.945 6.339,38.945 C6.269,38.945 6.199,38.938 6.129,38.922 C5.588,38.808 5.244,38.280 5.359,37.744 L6.671,31.652 L0.693,29.731 C0.168,29.563 -0.120,29.002 0.050,28.481 C0.220,27.960 0.785,27.674 1.311,27.842 L7.723,29.902 L15.738,25.313 C15.349,24.393 15.127,23.381 15.127,22.313 C15.127,21.210 15.371,20.170 15.784,19.226 L7.925,14.725 L1.473,16.861 C1.368,16.895 1.261,16.912 1.156,16.912 C0.737,16.912 0.347,16.649 0.207,16.233 C0.032,15.713 0.315,15.152 0.839,14.978 L6.879,12.980 L5.603,6.794 C5.492,6.257 5.841,5.732 6.382,5.623 C6.925,5.515 7.453,5.860 7.564,6.396 L8.928,13.006 L16.831,17.532 C17.958,16.129 19.552,15.167 21.378,14.902 L21.378,6.206 L16.373,1.729 C15.962,1.362 15.930,0.734 16.300,0.327 C16.671,-0.079 17.303,-0.113 17.714,0.256 L22.379,4.429 L27.043,0.256 C27.455,-0.113 28.087,-0.079 28.457,0.327 C28.827,0.734 28.795,1.361 28.385,1.729 L23.380,6.206 L23.380,14.902 C25.240,15.172 26.860,16.165 27.989,17.610 L36.034,13.004 L37.441,6.467 C37.556,5.931 38.084,5.587 38.629,5.704 C39.169,5.818 39.514,6.346 39.399,6.883 L38.087,12.975 L44.064,14.895 C44.589,15.063 44.878,15.624 44.707,16.145 C44.571,16.566 44.177,16.832 43.755,16.832 ZM22.379,16.783 C19.484,16.783 17.129,19.264 17.129,22.313 C17.129,25.363 19.484,27.844 22.379,27.844 C25.274,27.844 27.629,25.363 27.629,22.313 C27.629,19.264 25.274,16.783 22.379,16.783 Z" class="cls-1"/>
</svg>
