<svg xmlns="http://www.w3.org/2000/svg" xmlns:xlink="http://www.w3.org/1999/xlink" preserveAspectRatio="xMidYMid" width="38.94" height="52.94" viewBox="0 0 38.94 52.94">
  <defs>
    <style>
      .cls-1 {
        fill: #76b900;
        fill-rule: evenodd;
      }
    </style>
  </defs>
  <path d="M37.920,52.938 L0.991,52.938 C0.439,52.938 -0.007,52.491 -0.007,51.940 L-0.007,1.013 C-0.007,0.461 0.439,0.014 0.991,0.014 L28.145,0.014 C28.409,0.014 28.663,0.119 28.850,0.305 L38.626,10.074 C38.813,10.262 38.918,10.516 38.918,10.780 L38.918,51.940 C38.918,52.491 38.471,52.938 37.920,52.938 ZM28.937,3.423 L28.937,9.999 L35.510,9.999 L28.937,3.423 ZM36.922,11.996 L27.939,11.996 C27.387,11.996 26.941,11.550 26.941,10.998 L26.941,2.012 L1.989,2.012 L1.989,50.941 L36.922,50.941 L36.922,11.996 ZM20.080,41.674 L24.759,45.428 L31.594,34.919 C31.895,34.457 32.512,34.323 32.974,34.627 C33.437,34.926 33.568,35.545 33.267,36.007 L25.831,47.441 C25.678,47.678 25.431,47.838 25.152,47.883 C25.100,47.891 25.047,47.896 24.995,47.896 C24.769,47.896 24.548,47.819 24.370,47.676 L18.831,43.233 C18.401,42.887 18.332,42.259 18.677,41.828 C19.021,41.399 19.651,41.329 20.080,41.674 Z" class="cls-1"/>
</svg>
