<svg xmlns="http://www.w3.org/2000/svg" xmlns:xlink="http://www.w3.org/1999/xlink" preserveAspectRatio="xMidYMid" width="58" height="40" viewBox="0 0 58 40">
  <defs>
    <style>
      .cls-1 {
        fill: #76b900;
        fill-rule: evenodd;
      }
    </style>
  </defs>
  <path d="M58.000,39.993 L45.004,39.993 C45.003,39.993 45.001,39.993 45.000,39.993 C44.914,39.993 44.825,39.982 44.737,39.958 C44.204,39.812 43.890,39.262 44.035,38.728 L46.912,28.170 L29.000,2.687 L11.089,28.170 L13.965,38.728 C14.110,39.262 13.796,39.812 13.263,39.958 C13.175,39.981 13.087,39.975 13.000,39.974 L13.000,39.993 L0.000,39.993 L0.000,38.002 L11.694,38.002 L9.035,28.242 C8.957,27.954 9.011,27.647 9.182,27.402 L28.182,0.372 C28.557,-0.161 29.443,-0.161 29.818,0.372 L48.818,27.402 C48.989,27.647 49.043,27.954 48.965,28.242 L46.306,38.002 L58.000,38.002 L58.000,39.993 ZM23.000,24.012 L35.000,24.012 C36.104,24.012 37.000,24.906 37.000,26.009 L37.000,37.995 C37.000,39.098 36.104,39.993 35.000,39.993 L23.000,39.993 C21.896,39.993 21.000,39.098 21.000,37.995 L21.000,26.009 C21.000,24.906 21.896,24.012 23.000,24.012 ZM30.000,37.846 L35.000,37.846 L35.000,32.873 L30.000,32.873 L30.000,37.846 ZM35.000,30.883 L35.000,25.907 L30.000,25.907 L30.000,30.883 L35.000,30.883 ZM23.000,37.846 L28.000,37.846 L28.000,32.873 L23.000,32.873 L23.000,37.846 ZM23.000,30.883 L28.000,30.883 L28.000,25.907 L23.000,25.907 L23.000,30.883 Z" class="cls-1"/>
</svg>
