<svg xmlns="http://www.w3.org/2000/svg" xmlns:xlink="http://www.w3.org/1999/xlink" preserveAspectRatio="xMidYMid" width="67.938" height="37.969" viewBox="0 0 67.938 37.969">
  <defs>
    <style>
      .cls-1 {
        fill: #76b900;
        fill-rule: evenodd;
      }
    </style>
  </defs>
  <path d="M20.987,3.992 L20.987,5.990 L13.994,5.990 L13.994,3.992 L20.987,3.992 ZM67.927,24.764 C67.961,25.030 67.887,25.299 67.721,25.509 C67.556,25.720 67.313,25.855 67.047,25.885 C66.962,25.894 63.063,26.326 57.969,26.794 L57.969,24.788 C61.454,24.466 64.364,24.163 65.819,24.008 C65.534,21.640 64.861,15.726 64.861,12.353 C64.861,9.444 65.468,4.463 65.774,2.125 C61.400,2.590 46.825,4.072 38.967,4.072 C31.102,4.072 16.512,2.588 12.149,2.124 C12.398,4.124 12.854,8.079 13.012,11.163 C18.507,11.636 24.734,12.074 28.967,12.074 C30.699,12.074 32.766,12.000 34.980,11.881 C35.027,10.071 36.282,8.568 37.968,8.130 L37.968,6.989 C37.968,6.438 38.415,5.990 38.967,5.990 C39.518,5.990 39.966,6.438 39.966,6.989 L39.966,8.130 C41.478,8.523 42.645,9.773 42.904,11.332 C50.143,10.743 56.715,10.014 56.825,10.002 C57.136,9.968 57.437,10.078 57.653,10.300 C57.868,10.521 57.969,10.829 57.925,11.136 C57.914,11.211 56.859,18.682 56.859,22.353 C56.859,26.421 57.916,34.681 57.927,34.764 C57.961,35.030 57.887,35.299 57.721,35.509 C57.556,35.720 57.313,35.855 57.047,35.885 C56.859,35.905 38.239,37.969 28.967,37.969 C19.695,37.969 1.074,35.905 0.887,35.885 C0.620,35.855 0.375,35.718 0.209,35.506 C0.044,35.294 -0.028,35.024 0.008,34.757 C0.019,34.679 1.074,26.888 1.074,23.056 C1.074,19.149 0.019,11.207 0.008,11.128 C-0.033,10.823 0.069,10.517 0.283,10.297 C0.498,10.077 0.799,9.967 1.108,10.002 C1.198,10.012 5.522,10.491 11.003,10.986 C10.770,6.869 10.017,1.195 10.008,1.128 C9.967,0.823 10.069,0.517 10.283,0.297 C10.498,0.077 10.799,-0.033 11.108,0.002 C11.294,0.023 29.806,2.074 38.967,2.074 C48.129,2.074 66.639,0.023 66.825,0.002 C67.136,-0.032 67.437,0.078 67.653,0.300 C67.868,0.521 67.969,0.829 67.925,1.136 C67.914,1.211 66.859,8.682 66.859,12.353 C66.859,16.421 67.916,24.681 67.927,24.764 ZM38.967,9.986 C37.941,9.986 37.104,10.767 36.993,11.763 C38.276,11.683 39.587,11.590 40.895,11.490 C40.674,10.628 39.897,9.986 38.967,9.986 ZM2.149,12.124 C2.453,14.565 3.072,19.937 3.072,23.056 C3.072,26.216 2.412,31.731 2.121,34.009 C6.131,34.437 21.045,35.971 28.967,35.971 C36.894,35.971 51.820,34.435 55.819,34.008 C55.534,31.640 54.861,25.726 54.861,22.353 C54.861,19.444 55.468,14.463 55.774,12.125 C51.400,12.590 36.825,14.072 28.967,14.072 C21.102,14.072 6.512,12.588 2.149,12.124 ZM29.966,16.989 L29.966,18.130 C31.684,18.577 32.962,20.128 32.962,21.984 C32.962,22.536 32.515,22.983 31.963,22.983 C31.412,22.983 30.965,22.536 30.965,21.984 C30.965,20.882 30.069,19.986 28.967,19.986 C27.865,19.986 26.969,20.882 26.969,21.984 C26.969,23.086 27.865,23.982 28.967,23.982 C31.170,23.982 32.962,25.775 32.962,27.979 C32.962,29.836 31.684,31.386 29.966,31.833 L29.966,32.974 C29.966,33.525 29.518,33.973 28.967,33.973 L29.656,31.905 C29.431,31.945 29.203,31.975 28.967,31.975 C28.731,31.975 28.502,31.945 28.278,31.905 L28.967,33.973 C28.415,33.973 27.968,33.525 27.968,32.974 L27.968,31.833 C26.249,31.386 24.971,29.836 24.971,27.979 C24.971,27.427 25.419,26.980 25.970,26.980 C26.521,26.980 26.969,27.427 26.969,27.979 C26.969,29.081 27.865,29.977 28.967,29.977 C30.069,29.977 30.965,29.081 30.965,27.979 C30.965,26.877 30.069,25.981 28.967,25.981 C26.763,25.981 24.971,24.188 24.971,21.984 C24.971,20.128 26.249,18.577 27.968,18.130 L27.968,16.989 C27.968,16.438 28.415,15.990 28.967,15.990 C29.518,15.990 29.966,16.438 29.966,16.989 ZM3.994,30.976 L10.987,30.976 L10.987,32.974 L3.994,32.974 L3.994,30.976 ZM3.994,13.992 L10.987,13.992 L10.987,15.990 L3.994,15.990 L3.994,13.992 ZM53.939,15.990 L46.947,15.990 L46.947,13.992 L53.939,13.992 L53.939,15.990 ZM53.939,32.974 L46.947,32.974 L46.947,30.976 L53.939,30.976 L53.939,32.974 ZM56.947,3.992 L63.939,3.992 L63.939,5.990 L56.947,5.990 L56.947,3.992 ZM63.939,22.974 L57.969,22.974 L57.969,20.976 L63.939,20.976 L63.939,22.974 Z" class="cls-1"/>
</svg>
