<svg xmlns="http://www.w3.org/2000/svg" xmlns:xlink="http://www.w3.org/1999/xlink" preserveAspectRatio="xMidYMid" width="48" height="64" viewBox="0 0 48 64">
  <defs>
    <style>
      .cls-1 {
        fill: #76b900;
        fill-rule: evenodd;
      }
    </style>
  </defs>
  <path d="M47.903,12.826 C47.752,13.130 47.440,13.323 47.100,13.323 L34.591,13.323 C34.249,13.323 33.938,13.130 33.788,12.826 C33.637,12.521 33.676,12.156 33.885,11.890 L40.139,3.890 C40.479,3.457 41.213,3.457 41.551,3.890 L47.806,11.890 C48.014,12.156 48.052,12.521 47.903,12.826 ZM40.845,5.883 L36.417,11.546 L45.273,11.546 L40.845,5.883 ZM38.310,21.165 C37.678,21.517 36.886,21.280 36.541,20.642 C36.193,20.001 36.425,19.197 37.055,18.844 C37.183,18.773 38.640,18.198 39.982,13.333 L42.688,13.333 C41.019,19.962 38.908,20.832 38.310,21.165 ZM20.828,28.312 C24.486,28.312 27.464,31.308 27.464,34.988 C27.464,38.668 24.486,41.663 20.828,41.663 C17.170,41.663 14.194,38.668 14.194,34.988 C14.194,31.308 17.170,28.312 20.828,28.312 ZM20.828,38.992 C23.024,38.992 24.809,37.197 24.809,34.988 C24.809,32.779 23.024,30.982 20.828,30.982 C18.633,30.982 16.848,32.779 16.848,34.988 C16.848,37.197 18.633,38.992 20.828,38.992 ZM41.373,26.426 C41.972,27.881 41.597,29.574 40.316,31.195 C38.668,33.275 38.668,36.699 40.273,38.727 C41.597,40.401 41.972,42.095 41.374,43.549 C40.775,45.006 39.319,45.936 37.275,46.169 C34.646,46.470 32.240,48.891 31.950,51.466 C31.711,53.590 30.786,55.056 29.339,55.658 C28.889,55.846 28.417,55.938 27.930,55.938 C26.853,55.938 25.708,55.483 24.598,54.594 L24.545,54.551 C22.531,52.938 19.126,52.936 17.112,54.551 C15.446,55.885 13.761,56.258 12.319,55.659 C10.871,55.057 9.948,53.591 9.715,51.535 C9.674,51.172 9.587,50.816 9.471,50.467 L11.519,48.430 C11.948,49.287 12.236,50.210 12.343,51.165 C12.467,52.251 12.833,52.984 13.333,53.193 C13.831,53.396 14.607,53.143 15.404,52.505 C18.473,50.050 23.190,50.049 26.199,52.463 C26.200,52.464 26.202,52.464 26.203,52.466 L26.257,52.510 C27.050,53.143 27.822,53.400 28.324,53.191 C28.824,52.982 29.191,52.251 29.306,51.234 C29.746,47.318 33.082,43.961 36.908,43.524 C37.986,43.401 38.715,43.032 38.922,42.529 C39.128,42.026 38.874,41.248 38.239,40.445 C35.799,37.359 35.799,32.614 38.197,29.585 C38.873,28.730 39.128,27.952 38.921,27.447 C38.714,26.944 37.986,26.574 36.976,26.458 C33.084,26.016 29.746,22.659 29.314,18.811 C29.191,17.724 28.824,16.992 28.324,16.785 C27.825,16.575 27.047,16.831 26.251,17.471 C23.184,19.926 18.468,19.924 15.459,17.514 C14.800,16.987 14.189,16.714 13.713,16.714 C13.574,16.714 13.447,16.736 13.335,16.785 C12.833,16.993 12.467,17.724 12.351,18.742 C11.911,22.658 8.575,26.016 4.749,26.451 C3.671,26.574 2.942,26.944 2.736,27.447 C2.529,27.950 2.783,28.730 3.418,29.532 C5.858,32.616 5.858,37.362 3.460,40.390 C2.784,41.245 2.529,42.026 2.736,42.528 C2.943,43.032 3.671,43.401 4.681,43.518 C5.151,43.571 5.611,43.671 6.060,43.805 L3.783,46.070 C2.032,45.723 0.817,44.846 0.283,43.549 C-0.316,42.095 0.060,40.401 1.342,38.781 C2.989,36.701 2.989,33.275 1.385,31.248 C0.060,29.574 -0.316,27.881 0.283,26.424 C0.883,24.970 2.338,24.041 4.382,23.806 C7.011,23.505 9.417,21.084 9.707,18.510 C9.946,16.384 10.871,14.920 12.319,14.316 C13.765,13.717 15.448,14.090 17.058,15.381 C19.127,17.040 22.533,17.037 24.545,15.424 C26.210,14.092 27.894,13.718 29.339,14.316 C30.786,14.920 31.710,16.384 31.942,18.440 C32.241,21.086 34.647,23.507 37.205,23.798 C39.318,24.039 40.774,24.970 41.373,26.426 ZM11.240,43.724 C11.867,43.372 12.653,43.609 12.996,44.246 C13.342,44.885 13.111,45.686 12.485,46.038 C12.291,46.145 4.455,46.548 3.230,62.774 C3.178,63.465 2.610,63.991 1.940,63.991 C1.907,63.991 1.873,63.990 1.839,63.988 C1.127,63.932 0.593,63.297 0.647,62.570 C1.980,44.912 10.395,44.195 11.240,43.724 Z" class="cls-1"/>
</svg>
