<svg xmlns="http://www.w3.org/2000/svg" xmlns:xlink="http://www.w3.org/1999/xlink" preserveAspectRatio="xMidYMid" width="30.907" height="55.84" viewBox="0 0 30.907 55.84">
  <defs>
    <style>
      .cls-1 {
        fill: #76b900;
        fill-rule: evenodd;
      }
    </style>
  </defs>
  <path d="M14.954,55.853 C14.887,55.853 14.820,55.847 14.752,55.834 C14.289,55.737 13.957,55.330 13.957,54.856 L13.957,36.900 L0.997,36.900 C0.662,36.900 0.349,36.732 0.164,36.453 C-0.020,36.171 -0.052,35.818 0.081,35.510 L15.034,0.595 C15.220,0.159 15.688,-0.087 16.150,0.012 C16.614,0.106 16.947,0.515 16.947,0.989 L16.947,18.944 L29.906,18.944 C30.241,18.944 30.554,19.113 30.738,19.393 C30.923,19.673 30.954,20.027 30.822,20.334 L15.870,55.249 C15.710,55.621 15.346,55.853 14.954,55.853 ZM2.509,34.905 L14.953,34.905 C15.504,34.905 15.950,35.351 15.950,35.902 L15.950,49.996 L28.394,20.939 L15.950,20.939 C15.400,20.939 14.953,20.493 14.953,19.942 L14.953,5.849 L2.509,34.905 Z" class="cls-1"/>
</svg>
