<svg xmlns="http://www.w3.org/2000/svg" xmlns:xlink="http://www.w3.org/1999/xlink" preserveAspectRatio="xMidYMid" width="62" height="55.031" viewBox="0 0 62 55.031">
  <defs>
    <style>
      .cls-1 {
        fill: #76b900;
        fill-rule: evenodd;
      }
    </style>
  </defs>
  <path d="M61.333,20.403 L54.915,26.759 C54.485,27.184 53.913,27.419 53.305,27.419 C52.698,27.419 52.126,27.184 51.696,26.759 L44.154,19.290 L35.133,28.225 L40.577,33.668 C44.506,32.359 48.847,33.355 51.786,36.295 C53.856,38.362 54.995,41.114 54.995,44.041 C54.995,45.472 54.722,46.867 54.183,48.189 C54.073,48.460 53.834,48.660 53.545,48.717 C53.258,48.776 52.960,48.685 52.752,48.478 L47.695,43.419 L43.633,43.635 L43.418,47.697 L48.475,52.756 C48.682,52.962 48.773,53.259 48.714,53.548 C48.655,53.837 48.458,54.076 48.186,54.187 C44.087,55.860 39.418,54.918 36.290,51.789 C34.226,49.726 33.091,46.982 33.091,44.058 C33.091,42.869 33.286,41.701 33.660,40.579 L28.186,35.104 L8.965,54.138 C8.404,54.694 7.657,55.000 6.862,55.000 C6.068,55.000 5.321,54.694 4.760,54.137 L1.871,51.277 C1.309,50.721 1.000,49.981 1.000,49.195 C1.000,48.408 1.309,47.668 1.871,47.112 L21.127,28.044 L14.353,21.270 C10.442,22.504 6.150,21.499 3.233,18.611 C1.151,16.553 0.005,13.815 0.005,10.901 C0.005,9.476 0.280,8.087 0.820,6.772 C0.932,6.502 1.171,6.305 1.458,6.247 C1.744,6.189 2.041,6.278 2.248,6.483 L7.332,11.516 L11.425,11.301 L11.642,7.270 L6.560,2.243 C6.350,2.035 6.263,1.736 6.317,1.447 C6.376,1.158 6.575,0.918 6.848,0.808 C10.963,-0.854 15.651,0.080 18.790,3.188 C20.867,5.243 22.009,7.977 22.009,10.886 C22.009,12.116 21.801,13.328 21.394,14.486 L28.073,21.165 L37.061,12.265 L29.519,4.796 C28.632,3.918 28.632,2.488 29.519,1.609 L30.476,0.662 C30.932,0.209 31.546,-0.028 32.201,0.004 L43.710,0.585 C44.275,0.614 44.805,0.847 45.204,1.242 L61.333,17.215 C61.763,17.641 62.000,18.206 62.000,18.809 C62.000,19.411 61.763,19.977 61.333,20.403 ZM37.531,50.550 C39.833,52.853 43.128,53.746 46.226,52.986 L41.902,48.661 C41.726,48.487 41.630,48.246 41.646,47.995 L41.925,42.755 C41.948,42.308 42.306,41.951 42.753,41.927 L47.992,41.649 C48.240,41.636 48.483,41.730 48.658,41.904 L52.981,46.229 C53.154,45.518 53.241,44.786 53.241,44.043 C53.241,41.584 52.284,39.273 50.546,37.536 C47.962,34.952 44.084,34.150 40.667,35.495 L40.563,35.535 L40.546,35.541 C40.487,35.564 40.428,35.586 40.370,35.612 C39.292,36.082 38.339,36.728 37.531,37.536 C36.675,38.392 36.007,39.420 35.536,40.588 C35.525,40.620 35.509,40.647 35.497,40.678 L35.426,40.846 C35.406,40.891 35.386,40.935 35.370,40.982 C35.022,41.969 34.844,43.005 34.844,44.060 C34.844,46.513 35.798,48.819 37.531,50.550 ZM34.411,38.849 C34.438,38.797 34.475,38.754 34.503,38.704 C34.701,38.345 34.918,38.000 35.153,37.669 C35.223,37.570 35.293,37.471 35.366,37.375 C35.653,36.997 35.957,36.633 36.294,36.296 C36.627,35.962 36.989,35.661 37.362,35.375 C37.448,35.308 37.535,35.242 37.623,35.178 C37.998,34.908 38.386,34.656 38.797,34.434 C38.811,34.427 38.823,34.417 38.837,34.408 L33.887,29.458 L29.432,33.870 L34.411,38.849 ZM17.559,4.434 C15.245,2.144 11.934,1.257 8.818,2.011 L13.155,6.301 C13.333,6.478 13.424,6.727 13.415,6.971 L13.134,12.182 C13.109,12.630 12.752,12.986 12.305,13.010 L7.038,13.287 C6.792,13.299 6.552,13.208 6.376,13.035 L2.022,8.725 C1.848,9.433 1.759,10.161 1.759,10.901 C1.759,13.343 2.721,15.639 4.465,17.366 C7.065,19.939 10.966,20.737 14.403,19.397 L14.541,19.344 C14.596,19.324 14.648,19.304 14.701,19.282 C15.786,18.812 16.745,18.168 17.556,17.365 C18.174,16.756 18.689,16.054 19.109,15.281 C19.252,14.983 19.381,14.677 19.492,14.359 C19.532,14.245 19.600,14.147 19.680,14.060 C19.698,14.021 19.715,13.982 19.729,13.941 C20.080,12.960 20.257,11.931 20.257,10.886 C20.257,8.448 19.299,6.157 17.559,4.434 ZM20.620,16.191 C20.095,17.251 19.410,18.206 18.571,19.043 C17.899,19.714 17.149,20.289 16.327,20.764 L22.373,26.810 L26.827,22.398 L20.620,16.191 ZM3.056,48.285 C2.810,48.528 2.676,48.851 2.676,49.195 C2.676,49.538 2.810,49.861 3.056,50.104 L5.944,52.964 C6.435,53.450 7.290,53.450 7.780,52.964 L42.970,18.117 L38.245,13.438 L3.056,48.285 ZM60.149,18.388 L44.019,2.414 C43.914,2.310 43.774,2.249 43.624,2.241 L32.116,1.661 C32.115,1.661 32.114,1.661 32.113,1.661 C31.926,1.661 31.772,1.724 31.661,1.834 L30.704,2.782 C30.470,3.014 30.470,3.391 30.704,3.623 L52.882,25.585 C53.109,25.809 53.503,25.810 53.731,25.585 L60.149,19.229 C60.262,19.116 60.325,18.967 60.325,18.808 C60.325,18.649 60.262,18.500 60.149,18.388 Z" class="cls-1"/>
</svg>
