<svg xmlns="http://www.w3.org/2000/svg" xmlns:xlink="http://www.w3.org/1999/xlink" preserveAspectRatio="xMidYMid" width="36" height="54" viewBox="0 0 36 54">
  <defs>
    <style>
      .cls-1 {
        fill: #76b900;
        fill-rule: evenodd;
      }
    </style>
  </defs>
  <path d="M35.754,42.817 L26.375,53.668 C26.185,53.889 25.906,54.015 25.615,54.015 C25.323,54.015 25.045,53.889 24.854,53.668 L15.475,42.817 C15.218,42.520 15.159,42.098 15.322,41.743 C15.486,41.385 15.842,41.156 16.236,41.156 L24.125,41.156 L24.125,13.044 C24.125,6.954 19.166,2.000 13.071,2.000 C6.976,2.000 2.018,6.954 2.018,13.044 L2.018,22.080 L0.008,22.080 L0.008,12.040 L0.059,12.040 C0.575,5.311 6.207,-0.009 13.071,-0.009 C19.936,-0.009 25.567,5.311 26.084,12.040 L26.134,12.040 L26.134,41.156 L34.993,41.156 C35.386,41.156 35.744,41.385 35.907,41.743 C35.969,41.877 35.999,42.019 35.999,42.160 C35.999,42.397 35.915,42.631 35.754,42.817 ZM18.432,43.164 L25.615,51.476 L32.798,43.164 L18.432,43.164 Z" class="cls-1"/>
</svg>
