<svg xmlns="http://www.w3.org/2000/svg" xmlns:xlink="http://www.w3.org/1999/xlink" preserveAspectRatio="xMidYMid" width="78" height="75" viewBox="0 0 78 75">
  <defs>
    <style>
      .cls-1 {
        fill: #76b900;
        fill-rule: evenodd;
      }
    </style>
  </defs>
  <path d="M78.000,6.000 C78.000,19.865 69.696,31.783 57.795,37.075 L57.990,39.427 C58.205,42.008 56.262,44.714 53.750,45.339 L40.000,48.755 L40.000,55.988 L37.997,55.988 L37.997,48.755 L24.248,45.339 C21.865,44.746 19.995,42.282 19.991,39.829 L19.991,39.813 C19.991,39.684 19.997,39.555 20.007,39.427 L20.203,37.074 C8.302,31.781 -0.000,19.864 -0.000,6.000 C-0.000,5.702 0.013,5.407 0.022,5.111 C0.018,5.073 -0.000,5.039 -0.000,5.000 C-0.000,4.448 0.448,4.000 1.000,4.000 L15.967,4.000 C16.105,3.997 16.243,4.021 16.373,4.075 C16.510,4.131 16.628,4.216 16.727,4.323 L22.446,10.041 L23.279,-0.000 L54.718,-0.000 L55.552,10.044 L61.273,4.323 C61.372,4.216 61.490,4.131 61.627,4.075 C61.757,4.021 61.895,3.997 62.033,4.000 L77.000,4.000 C77.552,4.000 78.000,4.448 78.000,5.000 C78.000,5.039 77.982,5.073 77.978,5.111 C77.987,5.407 78.000,5.702 78.000,6.000 ZM15.596,6.000 L12.000,6.000 L10.000,6.000 L9.000,6.000 L2.000,6.000 C2.000,18.801 9.518,29.844 20.378,34.961 L22.231,12.635 L15.596,6.000 ZM53.063,2.000 L24.934,2.000 L22.006,38.404 C21.997,38.519 21.992,38.635 21.992,38.750 L21.992,38.765 C21.996,40.968 23.669,43.180 25.800,43.713 L38.999,47.003 L52.197,43.713 C54.445,43.151 56.183,40.721 55.991,38.404 L53.063,2.000 ZM62.404,6.000 L55.767,12.638 L57.619,34.959 C68.480,29.842 76.000,18.802 76.000,6.000 L62.404,6.000 ZM43.332,25.010 L43.808,27.917 C43.871,28.088 43.906,28.272 43.906,28.467 C43.906,29.314 43.200,30.017 42.436,29.991 L42.421,29.991 C42.190,29.991 41.957,29.933 41.744,29.816 L38.999,28.306 L36.253,29.816 C35.766,30.087 35.170,30.041 34.720,29.700 C34.272,29.359 34.048,28.781 34.141,28.210 L34.665,25.010 L32.445,22.742 C32.048,22.338 31.905,21.732 32.077,21.180 C32.247,20.630 32.703,20.228 33.251,20.144 L36.320,19.678 L37.694,16.767 C38.183,15.725 39.814,15.725 40.304,16.767 L41.677,19.678 L44.746,20.144 C45.295,20.228 45.750,20.630 45.921,21.180 C46.092,21.732 45.950,22.338 45.552,22.742 L43.332,25.010 ZM42.119,21.538 C41.136,21.389 40.283,20.740 39.841,19.806 L38.997,18.017 L38.153,19.806 C37.712,20.740 36.859,21.389 35.876,21.538 L33.988,21.826 L35.355,23.219 C36.066,23.948 36.393,24.996 36.223,26.022 L35.903,27.988 L37.591,27.060 C38.029,26.816 38.513,26.696 38.997,26.696 C39.481,26.696 39.965,26.816 40.404,27.060 L42.092,27.988 L41.771,26.022 C41.602,24.996 41.928,23.948 42.639,23.219 L44.006,21.826 L42.119,21.538 ZM17.000,63.000 L25.889,63.000 L29.000,56.000 L49.000,56.000 L52.111,63.000 L61.000,63.000 C61.552,63.000 62.000,63.448 62.000,64.000 L62.000,74.000 C62.000,74.552 61.552,75.000 61.000,75.000 L17.000,75.000 C16.448,75.000 16.000,74.552 16.000,74.000 L16.000,64.000 C16.000,63.448 16.448,63.000 17.000,63.000 ZM47.000,58.000 L31.000,58.000 L29.000,63.000 L49.000,63.000 L47.000,58.000 ZM18.000,72.000 C18.000,72.552 18.448,73.000 19.000,73.000 L59.000,73.000 C59.552,73.000 60.000,72.552 60.000,72.000 L60.000,66.000 C60.000,65.448 59.552,65.000 59.000,65.000 L53.000,65.000 L25.000,65.000 L19.000,65.000 C18.448,65.000 18.000,65.448 18.000,66.000 L18.000,72.000 Z" class="cls-1"/>
</svg>
