<svg xmlns="http://www.w3.org/2000/svg" width="43" height="49" viewBox="0 0 43 49">
  <defs>
    <style>
      .cls-1 {
        fill-rule: evenodd;
      }
    </style>
  </defs>
  <path id="Shape_9_copy" data-name="Shape 9 copy" class="cls-1" d="M521,473H486a1,1,0,0,1-1-1V462h-2.5a3.5,3.5,0,0,1,0-7H485v-3h-2.5a3.5,3.5,0,0,1,0-7H485v-3h-2.5a3.5,3.5,0,0,1,0-7H485V425a1,1,0,0,1,1-1h35a1,1,0,0,1,1,1v47A1,1,0,0,1,521,473Zm-38.5-16a1.5,1.5,0,0,0,0,3H489.5a1.5,1.5,0,0,0,0-3H482.5Zm0-10a1.5,1.5,0,0,0,0,3H489.5a1.5,1.5,0,0,0,0-3H482.5Zm0-10a1.5,1.5,0,0,0,0,3H489.5a1.5,1.5,0,0,0,0-3H482.5ZM520,426H487v9h2.5a3.5,3.5,0,0,1,0,7H487v3h2.5a3.5,3.5,0,0,1,0,7H487v3h2.5a3.5,3.5,0,0,1,0,7H487v9h33V426Zm-24,9h21a1,1,0,0,1,0,2H496A1,1,0,0,1,496,435Zm0,5h21a1,1,0,0,1,0,2H496A1,1,0,0,1,496,440Zm0,5h21a1,1,0,0,1,0,2H496A1,1,0,0,1,496,445Zm0,5h21a1,1,0,0,1,0,2H496A1,1,0,0,1,496,450Zm0,5h21a1,1,0,0,1,0,2H496A1,1,0,0,1,496,455Zm0,5h21a1,1,0,0,1,0,2H496A1,1,0,0,1,496,460Zm0,5h21a1,1,0,0,1,0,2H496A1,1,0,0,1,496,465Zm21-32H506a1,1,0,0,1-1-1v-3a1,1,0,0,1,1-1h11a1,1,0,0,1,1,1v3A1,1,0,0,1,517,433Zm-1-3h-9v1h9v-1Z" transform="translate(-479 -424)"/>
</svg>
