<svg xmlns="http://www.w3.org/2000/svg" width="54" height="30" viewBox="0 0 54 30">
  <defs>
    <style>
      .cls-1 {
        fill-rule: evenodd;
      }
    </style>
  </defs>
  <path id="Shape_7_copy" data-name="Shape 7 copy" class="cls-1" d="M526,492h-8v4h-4l-2-4H488l-2,4h-4v-4h-8a1,1,0,0,1-1-1v-9.5a4.506,4.506,0,0,1,4.5-4.5H480v-8a3,3,0,0,1,3-3H517a3,3,0,0,1,3,3v8h2.5a4.506,4.506,0,0,1,4.5,4.5V491A1,1,0,0,1,526,492Zm-46-8v-5h-2.5a2.5,2.5,0,0,0-2.5,2.5V490h5v-6Zm35.236,10H516v-2h-1.764ZM484,494h0.764l1-2H484v2Zm34-16v-9a1,1,0,0,0-1-1H483a1,1,0,0,0-1,1v13a1,1,0,0,0,1,1H517a1,1,0,0,0,1-1v-4Zm0,10v-3H482v5h36v-2Zm7-6.5a2.5,2.5,0,0,0-2.5-2.5H520v11h5v-8.5Z" transform="translate(-473 -466)"/>
</svg>
