<svg xmlns="http://www.w3.org/2000/svg" xmlns:xlink="http://www.w3.org/1999/xlink" preserveAspectRatio="xMidYMid" width="55" height="55" viewBox="0 0 55 55">
  <defs>
    <style>
      .cls-1 {
        fill: #fff;
        fill-rule: evenodd;
      }
    </style>
  </defs>
  <path d="M1.528,55.010 C1.249,55.010 0.970,54.934 0.724,54.782 C0.274,54.503 -0.000,54.012 -0.000,53.482 L-0.000,1.515 C-0.000,0.985 0.274,0.494 0.724,0.215 C1.174,-0.066 1.739,-0.088 2.211,0.148 L54.156,26.131 C54.674,26.391 55.000,26.919 55.000,27.499 C55.000,28.077 54.674,28.606 54.156,28.866 L2.211,54.849 C1.995,54.957 1.761,55.010 1.528,55.010 ZM3.055,3.988 L3.055,51.009 L50.057,27.499 L3.055,3.988 Z" class="cls-1"/>
</svg>
