<svg xmlns="http://www.w3.org/2000/svg" width="58" height="43.875" viewBox="0 0 58 43.875">
  <defs>
    <style>
      .cls-1 {
        fill-rule: evenodd;
      }
    </style>
  </defs>
  <path id="Shape_12_copy" data-name="Shape 12 copy" class="cls-1" d="M255,54.135H207a5.02,5.02,0,0,1-5-5.029V35.026A5.02,5.02,0,0,1,207,30h48a5.02,5.02,0,0,1,5,5.029v14.08A5.02,5.02,0,0,1,255,54.135Zm3-19.109a3.012,3.012,0,0,0-3-3.017H207a3.012,3.012,0,0,0-3,3.017v14.08a3.012,3.012,0,0,0,3,3.017h48a3.012,3.012,0,0,0,3-3.017V35.026Zm-50,9.051h46v2.011H208V44.078Zm41.015,5.029H212V47.095h37.015v2.011ZM213.147,67.186l1.7,0.559,1.758-1.021a3.208,3.208,0,0,1-.06-0.617,3.137,3.137,0,0,1,.07-0.648l-1.7-.987-1.715.58a1.005,1.005,0,0,1-.637-1.907l1.306-.441L213.6,61.346a1,1,0,1,1,1.96-.4l0.358,1.783,1.737,1.008a2.9,2.9,0,0,1,.846-0.5v-1.9l-1.334-1.2a1.01,1.01,0,0,1-.076-1.42,0.994,0.994,0,0,1,1.412-.077l1,0.9,1-.9a0.994,0.994,0,0,1,1.412.077,1.01,1.01,0,0,1-.076,1.42l-1.334,1.2v1.9a2.919,2.919,0,0,1,.872.521l1.777-1.032,0.371-1.764a1,1,0,1,1,1.957.416L225.2,62.7l1.274,0.417a1.006,1.006,0,1,1-.62,1.913l-1.705-.559-1.758,1.02a3.13,3.13,0,0,1,.061.617,3.208,3.208,0,0,1-.06.617l1.758,1.021,1.7-.559a1,1,0,0,1,.622,1.911l-1.275.419,0.277,1.319a1,1,0,1,1-1.957.416l-0.371-1.765-1.777-1.032a2.907,2.907,0,0,1-.872.521V70.9l1.379,1.2a1.008,1.008,0,0,1,.1,1.418,0.995,0.995,0,0,1-1.41.1l-1.069-.932-1.069.932a1,1,0,0,1-1.41-.1,1.008,1.008,0,0,1,.1-1.418l1.379-1.2V68.976a2.907,2.907,0,0,1-.872-0.521l-1.777,1.032-0.371,1.765a1,1,0,1,1-1.957-.416l0.277-1.319-1.275-.419a1.007,1.007,0,0,1-.64-1.268A1,1,0,0,1,213.147,67.186Zm6.353-.028a1.055,1.055,0,1,0-.952-1.051A1.006,1.006,0,0,0,219.5,67.158Zm15.647,0.028,1.7,0.56,1.76-1.022a3.133,3.133,0,0,1,.009-1.264l-1.7-.987-1.716.58a1.005,1.005,0,0,1-.637-1.907l1.306-.441L235.6,61.346a1,1,0,1,1,1.961-.4l0.357,1.783,1.737,1.008a2.9,2.9,0,0,1,.846-0.5v-1.9l-1.334-1.2a1.01,1.01,0,0,1-.076-1.42,1,1,0,0,1,1.412-.077l1,0.9,1-.9a1,1,0,0,1,1.412.077,1.01,1.01,0,0,1-.076,1.42l-1.334,1.2v1.9a2.906,2.906,0,0,1,.871.521l1.779-1.032,0.37-1.763a1,1,0,1,1,1.957.414L247.2,62.7l1.275,0.418a1.006,1.006,0,0,1-.311,1.961,0.985,0.985,0,0,1-.311-0.05l-1.7-.559-1.759,1.021a3.2,3.2,0,0,1,0,1.233l1.76,1.022,1.7-.56a1,1,0,0,1,.622,1.911l-1.275.419,0.277,1.32a1.006,1.006,0,0,1-.773,1.191,0.99,0.99,0,0,1-.207.022,1,1,0,0,1-.977-0.8l-0.37-1.764-1.778-1.032a2.909,2.909,0,0,1-.872.521V70.9l1.38,1.2a1.01,1.01,0,0,1,.1,1.419,1,1,0,0,1-1.411.1l-1.069-.933-1.069.933a1,1,0,0,1-1.411-.1,1.01,1.01,0,0,1,.1-1.419l1.38-1.2V68.976a2.909,2.909,0,0,1-.872-0.521l-1.778,1.032-0.37,1.764a1,1,0,0,1-.977.8,0.99,0.99,0,0,1-.207-0.022,1.006,1.006,0,0,1-.773-1.191l0.277-1.32-1.275-.419a1,1,0,0,1-.639-1.268A0.993,0.993,0,0,1,235.147,67.186Zm6.353-.028a1.056,1.056,0,1,0-.951-1.051A1.006,1.006,0,0,0,241.5,67.158Z" transform="translate(-202 -30)"/>
</svg>
