<svg xmlns="http://www.w3.org/2000/svg" xmlns:xlink="http://www.w3.org/1999/xlink" preserveAspectRatio="xMidYMid" width="52" height="43" viewBox="0 0 52 43">
  <defs>
    <style>
      .cls-1 {
        fill: #80be13;
        fill-rule: evenodd;
      }
    </style>
  </defs>
  <path d="M50.873,36.000 C50.821,36.000 50.769,35.996 50.716,35.988 C50.656,35.978 44.632,35.029 38.403,35.029 C32.174,35.029 26.150,35.978 26.089,35.988 C26.067,35.991 26.045,35.982 26.023,35.984 C25.992,35.987 25.963,36.000 25.932,36.000 C25.880,36.000 25.828,35.996 25.775,35.988 C25.715,35.978 19.691,35.029 13.462,35.029 C7.233,35.029 1.209,35.978 1.148,35.988 C0.860,36.033 0.567,35.950 0.344,35.761 C0.121,35.571 -0.006,35.293 -0.006,35.000 L-0.006,1.971 C-0.006,1.480 0.350,1.061 0.836,0.984 C1.088,0.943 7.093,-0.000 13.462,-0.000 C19.362,-0.000 24.942,0.808 25.932,0.959 C26.923,0.808 32.502,-0.000 38.403,-0.000 C44.771,-0.000 50.777,0.943 51.029,0.984 C51.514,1.061 51.871,1.480 51.871,1.971 L51.871,35.000 C51.871,35.293 51.743,35.571 51.521,35.761 C51.339,35.916 51.109,36.000 50.873,36.000 ZM24.935,2.837 C23.056,2.579 18.308,2.000 13.462,2.000 C8.616,2.000 3.867,2.579 1.989,2.837 L1.989,33.845 C4.065,33.564 8.647,33.029 13.462,33.029 C18.277,33.029 22.859,33.564 24.935,33.845 L24.935,2.837 ZM49.876,2.837 C47.997,2.579 43.249,2.000 38.403,2.000 C33.557,2.000 28.808,2.579 26.930,2.837 L26.930,33.845 C29.006,33.564 33.588,33.029 38.403,33.029 C43.218,33.029 47.799,33.564 49.876,33.845 L49.876,2.837 ZM41.895,13.000 L38.902,13.000 L38.902,11.000 L41.895,11.000 L41.895,13.000 ZM41.895,18.000 L38.902,18.000 L38.902,16.000 L41.895,16.000 L41.895,18.000 ZM41.895,23.000 L38.902,23.000 L38.902,21.000 L41.895,21.000 L41.895,23.000 ZM46.883,13.000 L43.890,13.000 L43.890,11.000 L46.883,11.000 L46.883,13.000 ZM46.883,18.000 L43.890,18.000 L43.890,16.000 L46.883,16.000 L46.883,18.000 ZM46.883,23.000 L43.890,23.000 L43.890,21.000 L46.883,21.000 L46.883,23.000 ZM33.913,21.000 L36.906,21.000 L36.906,23.000 L33.913,23.000 L33.913,21.000 ZM33.913,16.000 L36.906,16.000 L36.906,18.000 L33.913,18.000 L33.913,16.000 ZM33.913,11.000 L36.906,11.000 L36.906,13.000 L33.913,13.000 L33.913,11.000 ZM28.925,21.000 L31.918,21.000 L31.918,23.000 L28.925,23.000 L28.925,21.000 ZM28.925,16.000 L31.918,16.000 L31.918,18.000 L28.925,18.000 L28.925,16.000 ZM28.925,11.000 L31.918,11.000 L31.918,13.000 L28.925,13.000 L28.925,11.000 ZM16.954,8.000 L13.961,8.000 L13.961,6.000 L16.954,6.000 L16.954,8.000 ZM16.954,13.000 L13.961,13.000 L13.961,11.000 L16.954,11.000 L16.954,13.000 ZM16.954,18.000 L13.961,18.000 L13.961,16.000 L16.954,16.000 L16.954,18.000 ZM21.942,8.000 L18.949,8.000 L18.949,6.000 L21.942,6.000 L21.942,8.000 ZM21.942,13.000 L18.949,13.000 L18.949,11.000 L21.942,11.000 L21.942,13.000 ZM21.942,18.000 L18.949,18.000 L18.949,16.000 L21.942,16.000 L21.942,18.000 ZM8.973,16.000 L11.965,16.000 L11.965,18.000 L8.973,18.000 L8.973,16.000 ZM8.973,11.000 L11.965,11.000 L11.965,13.000 L8.973,13.000 L8.973,11.000 ZM8.973,6.000 L11.965,6.000 L11.965,8.000 L8.973,8.000 L8.973,6.000 ZM3.984,16.000 L6.977,16.000 L6.977,18.000 L3.984,18.000 L3.984,16.000 ZM3.984,11.000 L6.977,11.000 L6.977,13.000 L3.984,13.000 L3.984,11.000 ZM3.984,6.000 L6.977,6.000 L6.977,8.000 L3.984,8.000 L3.984,6.000 ZM0.991,38.000 L22.962,38.000 C23.513,38.000 23.960,38.448 23.960,39.000 C23.960,39.027 23.947,39.049 23.945,39.075 C23.985,40.142 24.858,41.000 25.932,41.000 C27.032,41.000 27.928,40.103 27.928,39.000 C27.928,38.448 28.374,38.000 28.925,38.000 L51.001,38.000 C51.552,38.000 51.999,38.448 51.999,39.000 C51.999,39.552 51.552,40.000 51.001,40.000 L29.796,40.000 C29.353,41.723 27.788,43.000 25.932,43.000 C24.078,43.000 22.529,41.720 22.083,40.000 L0.991,40.000 C0.440,40.000 -0.006,39.552 -0.006,39.000 C-0.006,38.448 0.440,38.000 0.991,38.000 Z" class="cls-1"/>
</svg>
