<svg xmlns="http://www.w3.org/2000/svg" width="49.906" height="49.937" viewBox="0 0 49.906 49.937">
  <defs>
    <style>
      .cls-1 {
        fill-rule: evenodd;
      }
    </style>
  </defs>
  <path class="cls-1" d="M337.447,578.454l-2.835,2.836h0l-1.418,1.419-1.417-1.418,1.417-1.418-5.621-5.625-1.466-1.467h0l-1.418,1.419L303.427,595.47l-1.417,1.418,2.71,2.711,4.378,4.38,1.417-1.418,1.417,1.418-2.834,2.835h0l-1.418,1.419-1.418-1.418,1.418-1.418-3.456-3.458-3.632-3.633-1.417,1.418-0.913.914-1.213,1.213,1.1,1.1,5.282,5.283h0l0.709,0.709,1.228-1.229,0.9-.9,1.417,1.418-3.542,3.545-0.709-.709-0.709-.709-0.709-.709,0.709,0.709h0l-0.709-.709-1.417,1.418-2.835,2.836-2.126-2.127-2.836,2.836a1,1,0,0,1-1.417-1.418l2.836-2.836-2.127-2.128,2.835-2.835,1.417-1.418-0.708-.709h0l-0.709-.709-0.709-.71,3.544-3.545,1.417-1.417,1.417-1.418,1.418-1.419,21.263-21.271,1.417-1.418,0.284,0.284-0.284-.284,0.193-.193,1.224-1.224h0l5.412,5.414,3.093,3.094,1.417-1.418,2.127-2.128-7.088-7.09-2.126,2.127-1.418,1.418,4,4-5.412-5.414,1.418-1.419,3.544-3.545,9.921,9.927Zm-42.524,29.779,1.418,1.418h0l1.417,1.418,1.417-1.418,1.417-1.418-2.225-2.227-0.609-.609-1.418,1.418Zm38.271-25.525h0l3.544,3.545a1,1,0,0,1,0,1.418l-18.411,18.418a1,1,0,0,1-1.417-1.417l17.7-17.71-2.835-2.836h0l-19.845,19.853-1.417-1.418,21.262-21.271Zm-8.5-11.345h0Z" transform="translate(-291.094 -564.969)"/>
</svg>
