<svg xmlns="http://www.w3.org/2000/svg" xmlns:xlink="http://www.w3.org/1999/xlink" preserveAspectRatio="xMidYMid" width="46" height="41" viewBox="0 0 46 41">
  <defs>
    <style>
      .cls-1 {
        fill: #6bb000;
        fill-rule: evenodd;
      }
    </style>
  </defs>
  <path d="M46.000,40.155 C46.000,40.621 45.625,41.000 45.164,41.000 L0.836,41.000 C0.375,41.000 -0.000,40.621 -0.000,40.155 L-0.000,15.830 C-0.000,15.825 0.003,15.820 0.003,15.815 C0.003,15.810 -0.000,15.805 -0.000,15.800 L-0.000,8.836 C-0.000,8.369 0.375,7.990 0.836,7.990 L14.000,7.990 L14.000,5.000 C14.000,2.239 16.239,-0.000 19.000,-0.000 L27.000,-0.000 C29.761,-0.000 32.000,2.239 32.000,5.000 L32.000,7.990 L45.164,7.990 C45.625,7.990 46.000,8.369 46.000,8.836 L46.000,15.800 C46.000,15.805 45.997,15.810 45.997,15.815 C45.997,15.820 46.000,15.825 46.000,15.830 L46.000,40.155 ZM30.000,6.000 C30.000,3.791 28.209,2.000 26.000,2.000 L20.000,2.000 C17.791,2.000 16.000,3.791 16.000,6.000 L16.000,8.000 L17.000,8.000 L29.000,8.000 L30.000,8.000 L30.000,6.000 ZM44.000,10.000 L31.000,10.000 L15.000,10.000 L2.000,10.000 L2.000,14.991 L44.000,14.991 L44.000,10.000 ZM16.000,17.000 L16.000,19.000 C16.000,21.209 17.791,23.000 20.000,23.000 L26.000,23.000 C28.209,23.000 30.000,21.209 30.000,19.000 L30.000,17.000 L29.000,17.000 L17.000,17.000 L16.000,17.000 ZM44.000,17.029 L32.000,17.029 L32.000,20.000 C32.000,22.761 29.761,25.000 27.000,25.000 L19.000,25.000 C16.239,25.000 14.000,22.761 14.000,20.000 L14.000,17.029 L2.000,17.029 L1.985,39.010 L44.000,39.002 L44.000,17.029 ZM18.994,19.004 L27.006,19.004 L27.006,20.996 L18.994,20.996 L18.994,19.004 Z" class="cls-1"/>
</svg>
