<svg xmlns="http://www.w3.org/2000/svg" width="52.062" height="53" viewBox="0 0 52.062 53">
  <defs>
    <style>
      .cls-1 {
        fill: #6bb000;
        fill-rule: evenodd;
      }
    </style>
  </defs>
  <path id="Shape_14_copy" data-name="Shape 14 copy" class="cls-1" d="M70.515,61.19l0.161,1.941a5.937,5.937,0,0,1-4.34,6.048l-9.312,2.316V75h6.012L63.7,77l0.668,2h6.68v9H40.993V79h6.68l0.668-2,0.668-2h6.012V71.495l-9.312-2.316a5.935,5.935,0,0,1-4.34-6.048l0.159-1.911A25.794,25.794,0,0,1,30,38.919,1,1,0,0,1,31,38h9.585a1.009,1.009,0,0,1,.694.278l2,1.914L43.7,35H68.342l0.427,5.152,1.954-1.874A1,1,0,0,1,71.418,38H81a1,1,0,0,1,1,.919A25.793,25.793,0,0,1,70.515,61.19ZM40.178,40h-8.2a24.329,24.329,0,0,0,9.742,18.887l1.338-16.125ZM47,81H43v5H69.049V81H47Zm3.448-4-0.667,2H62.26l-0.667-2H50.452ZM66.5,37H45.548l-2.18,26.3a3.926,3.926,0,0,0,2.826,3.943l9.83,2.444,9.83-2.444A3.926,3.926,0,0,0,68.678,63.3Zm5.324,3-2.838,2.722,1.339,16.134A24.237,24.237,0,0,0,80.022,40h-8.2ZM59.006,53.967l0.328,1.908a1,1,0,0,1,.067.361,1.014,1.014,0,0,1-1.012,1h-0.01a1,1,0,0,1-.466-0.115l-1.89-.991-1.89.991a1,1,0,0,1-1.454-1.054l0.361-2.1-1.528-1.488a1,1,0,0,1,.555-1.7l2.112-.306,0.946-1.91a1.043,1.043,0,0,1,1.8,0l0.945,1.91,2.112,0.306a1,1,0,0,1,.555,1.7Zm-1.949-1.6a1,1,0,0,1-.755-0.547l-0.28-.565-0.279.565a1,1,0,0,1-.755.547l-0.625.091,0.453,0.44a1,1,0,0,1,.288.885L55,54.408l0.559-.293a1,1,0,0,1,.932,0l0.559,0.293-0.106-.621a1,1,0,0,1,.288-0.885l0.453-.44Z" transform="translate(-29.969 -35)"/>
</svg>
