<svg xmlns="http://www.w3.org/2000/svg" xmlns:xlink="http://www.w3.org/1999/xlink" preserveAspectRatio="xMidYMid" width="56" height="33" viewBox="0 0 56 33">
  <defs>
    <style>
      .cls-1 {
        fill: #76b900;
        fill-rule: evenodd;
      }
    </style>
  </defs>
  <path d="M41.831,8.101 C41.311,11.470 38.454,14.007 34.935,14.007 L18.701,14.007 L20.459,17.610 C20.659,17.911 20.559,18.311 20.360,18.611 L18.662,21.014 C18.563,21.314 18.263,21.514 17.964,21.514 C17.764,21.514 17.564,21.414 17.365,21.314 C16.866,21.014 16.766,20.413 17.065,19.913 L18.363,17.911 L16.737,14.488 L12.972,28.621 C12.173,31.824 8.979,33.626 5.784,32.825 C2.589,32.024 0.792,28.821 1.591,25.618 L4.786,13.707 C2.090,12.806 0.094,10.203 -0.006,7.000 C-0.006,3.097 3.089,-0.006 6.982,-0.006 L34.935,-0.006 C38.523,-0.006 41.426,2.631 41.861,6.100 L56.000,6.100 L56.000,8.101 L41.831,8.101 ZM33.038,2.096 L7.082,2.096 C4.287,2.096 2.090,4.305 2.090,7.117 C2.090,9.226 3.488,11.133 5.485,11.836 C6.483,12.138 6.982,13.242 6.782,14.246 L3.588,26.196 C2.989,28.305 4.287,30.414 6.383,31.017 C6.682,31.117 7.082,31.117 7.381,31.117 C9.178,31.117 10.676,29.912 11.175,28.205 L15.068,13.544 C15.268,12.640 16.067,12.037 16.965,12.037 L33.038,12.037 L33.038,2.096 ZM35.035,2.096 L35.035,12.037 C37.830,12.037 40.027,9.828 40.027,7.016 C40.027,4.205 37.830,2.096 35.035,2.096 ZM23.055,10.103 L21.058,10.103 L21.058,4.098 L23.055,4.098 L23.055,10.103 ZM27.048,10.103 L25.052,10.103 L25.052,4.098 L27.048,4.098 L27.048,10.103 ZM31.042,10.103 L29.045,10.103 L29.045,4.098 L31.042,4.098 L31.042,10.103 ZM7.082,10.103 C5.385,10.103 4.087,8.802 4.087,7.100 C4.087,5.399 5.385,4.098 7.082,4.098 C8.779,4.098 10.077,5.399 10.077,7.100 C10.077,8.802 8.779,10.103 7.082,10.103 ZM7.082,6.100 C6.483,6.100 6.084,6.500 6.084,7.100 C6.084,7.701 6.483,8.101 7.082,8.101 C7.681,8.101 8.080,7.701 8.080,7.100 C8.080,6.500 7.681,6.100 7.082,6.100 Z" class="cls-1"/>
</svg>
