<svg xmlns="http://www.w3.org/2000/svg" width="57.969" height="48" viewBox="0 0 57.969 48">
  <defs>
    <style>
      .cls-1 {
        fill: #6bb000;
        fill-rule: evenodd;
      }
    </style>
  </defs>
  <path id="Shape_16_copy" data-name="Shape 16 copy" class="cls-1" d="M115.99,275l0.943-3.3,1.056-3.7V256h21.994v12l1.056,3.7,0.943,3.3H115.99Zm21.993-9v-8H119.989v10h17.994v-2Zm1.063,6-0.572-2H119.5l-0.572,2-0.286,1h20.692Zm-12.06-20a1,1,0,0,1-1-1,14.013,14.013,0,0,0-14-14,1,1,0,1,1,0-2,16.016,16.016,0,0,1,16,16A1,1,0,0,1,126.986,252Zm-42.044-9.3L86,239V227h21.993v12l1.056,3.7,0.944,3.3H84Zm21.051-5.7v-8H88v10h17.995v-2Zm1.348,7-0.286-1-0.571-2H87.507l-0.572,2-0.286,1h20.691ZM97,250a1,1,0,0,1,1,1,14.012,14.012,0,0,0,14,14,1,1,0,0,1,0,2,16.016,16.016,0,0,1-16-16A1,1,0,0,1,97,250Z" transform="translate(-84 -227)"/>
</svg>
