<svg xmlns="http://www.w3.org/2000/svg" width="43.094" height="57.969" viewBox="0 0 43.094 57.969">
  <defs>
    <style>
      .cls-1 {
        fill: #6bb000;
        fill-rule: evenodd;
      }
    </style>
  </defs>
  <path id="Shape_15_copy" data-name="Shape 15 copy" class="cls-1" d="M187,221.907h0Zm-19.573-8.859h0Zm11.445,7.257a22.052,22.052,0,0,0-11.466-3.228,22.343,22.343,0,0,0-19.192,10.937,22.711,22.711,0,0,0-2.043,4.457l-2.25.527a24.571,24.571,0,0,1,2.581-6.021,24.274,24.274,0,0,1,11.109-9.836l-9.436-35.513a1.009,1.009,0,0,1,.706-1.233l2.893-.782a0.987,0.987,0,0,1,.758.1,1,1,0,0,1,.466.611l0.945,3.56c0.644,0.061,2.784-.084,7.588-3.059A20.124,20.124,0,0,1,172.3,178a24.07,24.07,0,0,1,5.7.643,1,1,0,0,1,.719.758l3.859,17.7a1.013,1.013,0,0,1-.3.96,0.992,0.992,0,0,1-.975.216,27.855,27.855,0,0,0-7.374-1.161c-2.625,0-4.6.562-5.863,1.672a14.174,14.174,0,0,1-9.265,3.386l3.569,13.432a24.252,24.252,0,0,1,23.14,7.644h0l-2.249.528A22.394,22.394,0,0,0,178.873,220.305Zm-12.116-23.038c1.64-1.437,4.054-2.166,7.174-2.166a28.184,28.184,0,0,1,6.347.813l-3.37-15.454a23.875,23.875,0,0,0-4.606-.446,18.176,18.176,0,0,0-9.725,2.528c-3.388,2.1-6.08,3.227-8.013,3.361l3.742,14.25A12.383,12.383,0,0,0,166.757,197.267Zm-15.429-15.448-0.965.26,9.078,34.163,0.964-.26Zm10.377,4.864,2.433-.356,1.088-2.224a1.036,1.036,0,0,1,1.791,0l1.088,2.224,2.434,0.356a1.009,1.009,0,0,1,.554,1.718l-1.761,1.731,0.382,2.25a1.008,1.008,0,0,1-.931,1.372h-0.019a1,1,0,0,1-.465-0.116l-2.177-1.154-2.176,1.154a0.99,0.99,0,0,1-1.052-.077,1.01,1.01,0,0,1-.4-0.985l0.416-2.444-1.762-1.732a1.015,1.015,0,0,1-.252-1.032A1,1,0,0,1,161.705,186.683Zm2.977,2.377a1.007,1.007,0,0,1,.287.89l-0.162.956,0.85-.451a0.992,0.992,0,0,1,.929,0l0.85,0.451-0.161-.955a1.016,1.016,0,0,1,.286-0.892l0.689-.676-0.951-.139a1,1,0,0,1-.752-0.552l-0.425-.868-0.425.868a1,1,0,0,1-.752.552l-0.951.139Zm-18.837,44.482h0Zm9.593-3.612a3.021,3.021,0,1,1-3,3.021A3.008,3.008,0,0,1,155.438,229.93Zm0,4.028a1.007,1.007,0,1,0-1-1.007A1,1,0,0,0,155.437,233.958Zm9.988-13.091a4.028,4.028,0,1,1-4,4.028A4.011,4.011,0,0,1,165.425,220.867Zm0,6.042a2.014,2.014,0,1,0-2-2.014A2.008,2.008,0,0,0,165.423,226.909Zm13.981,0a3.021,3.021,0,1,1-3,3.021A3.009,3.009,0,0,1,179.4,226.909Zm0,4.028a1.007,1.007,0,1,0-1-1.007A1,1,0,0,0,179.4,230.937Z" transform="translate(-143.906 -178)"/>
</svg>
